<svg width="1548" height="325" viewBox="0 0 1548 325" fill="none" xmlns="http://www.w3.org/2000/svg">
<mask id="path-1-inside-1_164_3" fill="white">
<path fill-rule="evenodd" clip-rule="evenodd" d="M98.984 2.15679C90.468 3.96243 74.464 9.6048 73.516 11.1351C73.158 11.7137 104.046 66.6241 106.56 69.8782C106.701 70.0608 109.817 67.8571 113.485 64.982L120.154 59.7537L124.319 61.8536C126.61 63.0088 132.646 66.2191 137.734 68.9874L146.984 74.0212V37.1173V0.213485L127.234 0.283316C112.206 0.337186 105.452 0.785106 98.984 2.15679ZM154.984 36.4599C154.984 56.5125 155.322 73.1104 155.734 73.3428C156.146 73.5753 162.109 70.6942 168.984 66.9403C175.859 63.1864 181.795 60.1048 182.174 60.0919C182.554 60.0799 185.804 62.3165 189.397 65.0638L195.929 70.0578L197.347 67.8072C201.243 61.6192 228.961 13.2001 229.204 12.1586C229.553 10.6563 218.211 5.72717 208.102 2.98878C201.783 1.27692 196.606 0.845957 177.734 0.462883L154.984 0V36.4599ZM35.814 30.4983C20.046 38.8063 6.362 46.2772 5.406 47.1002C2.843 49.3049 0.0299999 56.0726 0.0139999 60.0689L0 63.5605L35.95 84.2465C55.722 95.624 72.467 105.051 73.16 105.196C73.963 105.363 74.756 103.554 75.345 100.211C76.258 95.0275 76.415 94.8439 88.153 85.288C96.106 78.8126 99.854 75.1355 99.482 74.1698C98.348 71.221 65.565 15.1813 65.035 15.2851C64.732 15.3439 51.583 22.1904 35.814 30.4983ZM220.086 44.6611C210.68 60.9079 202.984 74.5619 202.984 75.0028C202.984 75.4438 207.592 79.5598 213.224 84.1477C226.865 95.2619 226.664 95.0255 227.469 100.861C227.855 103.665 228.377 105.958 228.628 105.958C229.152 105.958 293.489 68.9804 299.358 65.3063C303.156 62.928 303.219 62.7913 302.597 58.2663C301.222 48.2614 300.72 47.9013 255.836 24.7442L237.189 15.1225L220.086 44.6611ZM1485.74 44.0715C1456.36 49.4346 1439 70.6274 1442.85 96.4371C1445.84 116.476 1455.19 128.145 1484.48 148.363C1505.38 162.787 1509.96 168.278 1510.71 179.772C1511.27 188.448 1508.54 193.964 1501.56 198.223C1496.81 201.128 1496.24 201.228 1484.56 201.228C1473.57 201.228 1471.97 200.989 1466.81 198.574C1455.1 193.098 1448.18 183.81 1445.92 170.547C1444.72 163.455 1444.17 162.47 1442.14 163.722C1439.58 165.303 1437.78 200.435 1439.97 206.181C1441.17 209.316 1446.52 211.78 1457.58 214.285C1469.15 216.908 1491.73 216.69 1502.28 213.853C1527.84 206.99 1542.98 189.11 1542.98 165.813C1542.98 143.624 1532.83 130.636 1496.3 106.083C1478.49 94.1127 1473.97 88.18 1474 76.8184C1474.02 68.0975 1476.73 63.4467 1483.91 59.8195C1488.67 57.4183 1490.47 57.0791 1498.41 57.1001C1508.39 57.126 1515.48 59.3008 1522.15 64.3735C1526.5 67.6825 1530.79 75.363 1531.61 81.2966C1532.36 86.7565 1533.32 88.4673 1535.24 87.7351C1536.4 87.2892 1536.84 83.4504 1537.42 68.5155C1537.83 57.9949 1537.76 49.4715 1537.26 48.9757C1536.78 48.4929 1532.36 47.184 1527.43 46.0667C1517.39 43.7872 1493.55 42.646 1485.74 44.0715ZM361.918 47.1411C361.244 47.5561 360.944 48.5507 361.252 49.3498C361.631 50.3364 363.926 50.9729 368.397 51.331C375.713 51.9166 379.486 53.839 381.248 57.8762C382.827 61.4965 383.492 159.585 382.097 183.237C381.035 201.254 379.861 206.035 376.245 207.084C375.276 207.364 371.897 207.897 368.734 208.267C364.006 208.82 362.984 209.275 362.984 210.82C362.984 211.854 363.547 212.719 364.234 212.743C366.874 212.833 441.575 212.88 443.234 212.792C445.036 212.697 445.657 210.24 444.119 209.292C443.644 208.999 440.606 208.487 437.369 208.154C422.535 206.631 422.568 206.713 422.165 170.801C421.989 155.164 421.989 139.934 422.165 136.956L422.484 131.542L426.205 137.147C432.298 146.324 453.749 174.452 464.044 186.763C479.216 204.906 484.017 208.467 497.345 211.468C503.43 212.838 512.97 213.088 561.984 213.167C593.609 213.218 620.519 213.079 621.784 212.859C623.26 212.602 623.972 211.876 623.771 210.834C623.542 209.64 621.555 208.923 616.283 208.134C612.336 207.544 608.427 206.498 607.596 205.81C603.739 202.617 603.522 199.125 603.503 139.876C603.48 71.7367 602.914 75.2153 614.314 73.5094C618.691 72.855 621.188 70.9137 619.639 69.3684C618.537 68.2681 549.923 68.709 548.806 69.8233C547.015 71.61 548.778 72.8221 554.235 73.5573C557.122 73.9464 560.256 74.6696 561.199 75.1634C564.874 77.0908 565.128 81.7944 564.801 141.871C564.493 198.556 564.425 200.33 562.44 203.702C560.779 206.522 559.559 207.327 555.94 207.995C549.863 209.114 542.031 208.268 536.7 205.916C525.302 200.886 493.622 166.716 462.765 126.171L452.714 112.964L469.599 95.3467C489.662 74.4123 503.214 61.7608 510.306 57.3405C514.709 54.5971 521.029 52.577 531.734 50.493C534.133 50.0262 534.819 47.5771 532.734 46.9197C529.787 45.9909 471.839 46.8458 470.85 47.8325C469.581 49.0984 471.031 50.1668 475.984 51.6163C480.976 53.0768 481.197 56.6801 476.708 63.4098C471.776 70.802 458.1 85.9753 438.808 105.459L422.016 122.418L422.006 92.4906C421.999 74.7225 422.419 61.0396 423.039 58.8129C424.309 54.252 426.911 52.4513 433.484 51.5834C440.549 50.6497 441.984 50.1459 441.984 48.5966C441.984 47.8474 441.196 47.0244 440.234 46.768C437.286 45.9819 363.226 46.3341 361.918 47.1411ZM660.486 67.8002C659.403 70.4568 659.014 81.7555 657.967 140.874C657.438 170.777 656.573 197.038 656.047 199.233C654.73 204.716 651.383 207.308 644.514 208.164C639.336 208.81 636.606 210.66 638.315 212.365C639.07 213.119 699.898 213.119 700.653 212.365C702.368 210.654 699.643 208.902 694.313 208.289C686.443 207.384 683.475 206.085 682.012 202.906C681.25 201.251 680.458 191.673 679.934 177.785C679.468 165.439 678.839 148.633 678.534 140.437L677.981 125.534L680.733 128.076C688.406 135.163 745.056 184.586 755.484 193.292C784.023 217.118 789.332 219.7 791.091 210.612C791.453 208.743 792.036 186.114 792.387 160.327C793.15 104.3 794.224 82.385 796.413 78.1622C798.083 74.941 799.01 74.4971 806.167 73.4905C810.681 72.855 813.039 70.813 810.83 69.4512C808.997 68.321 751.95 68.6821 750.798 69.8313C748.949 71.6759 750.889 72.884 756.75 73.5364C759.904 73.8875 763.756 74.6617 765.311 75.2562C771.099 77.4679 771.319 78.6011 772.217 110.833C772.669 127.081 772.915 144.226 772.762 148.932L772.484 157.49L739.984 129.121C703.391 97.1803 673.344 71.6499 668.401 68.299C664.432 65.6085 661.456 65.421 660.486 67.8002ZM901.484 67.0999C867.85 72.2744 843.17 90.8406 834.386 117.575C831.706 125.733 831.484 127.552 831.484 141.373C831.484 154.241 831.81 157.384 833.816 163.818C844.308 197.487 876.333 215.664 925.2 215.687C945.974 215.697 973.622 210.941 977.106 206.761C978.48 205.112 978.801 200.874 979.206 179.078C979.546 160.803 980.064 152.55 980.993 150.603C982.351 147.76 986.83 145.878 992.265 145.868C994.961 145.862 996.981 143.531 995.538 142.091C994.619 141.175 922.319 141.048 920.84 141.96C918.102 143.648 920.995 145.667 927.162 146.37C935.213 147.289 938.486 148.987 939.876 152.964C941.117 156.516 941.42 196.541 940.219 198.335C938.598 200.757 934.715 201.727 926.639 201.727C911.878 201.727 901.359 197.231 891.655 186.775C885.39 180.024 880.262 170.288 876.938 158.83C873.815 148.07 873.066 125.147 875.481 114.281C878.821 99.2602 885.761 89.1926 896.342 84.021C904.819 79.8771 912.367 78.674 925.484 79.3733C942.784 80.2951 953.49 83.7497 961.299 90.9304C966.232 95.4674 967.272 97.5045 969.403 106.808C971.027 113.899 971.316 114.408 973.288 113.652C974.346 113.247 974.848 109.491 975.387 97.9504C975.777 89.6056 976.551 80.319 977.108 77.3123C977.666 74.3045 977.978 71.7068 977.803 71.5382C977.627 71.3686 970.734 70.2453 962.484 69.0412C945.746 66.5971 911.776 65.5157 901.484 67.0999ZM1268.31 67.3014C1267.33 68.8347 1266.21 104.404 1266.03 139.876C1265.83 176.761 1264.64 198.568 1262.59 202.521C1260.56 206.444 1258.93 207.287 1251.73 208.158C1246.96 208.735 1245.98 209.181 1245.98 210.777C1245.98 211.918 1246.7 212.727 1247.73 212.766C1248.7 212.803 1262.46 212.857 1278.31 212.888C1298.35 212.926 1307.48 212.601 1308.26 211.823C1310.08 210.007 1308.04 209.031 1299.98 207.88C1290.81 206.568 1289.37 205.126 1288.56 196.475C1287.88 189.252 1285.78 126.757 1286.2 126.396C1286.36 126.262 1300.21 138.268 1316.98 153.075C1368.71 198.733 1389.73 215.693 1394.61 215.693C1399.17 215.693 1399.33 214.204 1400.15 161.324C1401.07 102.445 1402.07 82.6813 1404.36 78.269C1406.05 75.0048 1406.88 74.5848 1413.8 73.5094C1417.72 72.9009 1420.13 70.8529 1418.65 69.3814C1417.56 68.297 1359.91 68.724 1358.8 69.8253C1357.01 71.617 1358.79 72.8261 1364.23 73.5124C1372.84 74.5958 1375.87 75.9096 1377.7 79.3553C1379.13 82.0458 1379.5 87.775 1380.2 117.929C1380.66 137.407 1380.91 154.301 1380.76 155.472C1380.53 157.235 1376.36 154 1356.48 136.642C1322.85 107.274 1290.92 79.914 1281.53 72.4161C1273.76 66.2181 1269.94 64.7396 1268.31 67.3014ZM1011.08 69.7286C1008.64 71.5292 1010.82 72.9937 1017.02 73.7269C1024.74 74.6387 1026.61 76.8474 1027.48 86.112C1028.55 97.5454 1027.42 196.569 1026.17 201.201C1024.82 206.185 1023.1 207.429 1016.44 208.26C1011.42 208.885 1008.78 210.843 1011.06 212.247C1012.37 213.059 1085.79 213.227 1086.6 212.42C1086.95 212.073 1086.98 211.135 1086.67 210.336C1086.3 209.372 1083.83 208.638 1079.33 208.158C1073.88 207.576 1072.03 206.911 1069.88 204.765C1067.43 202.327 1067.14 201.199 1066.54 191.687C1066.17 185.961 1066.01 158.83 1066.18 131.397L1066.48 81.5171L1072.44 81.2118C1080.32 80.8078 1085.78 82.9826 1090.95 88.583C1096.42 94.4957 1098.73 100.192 1100.05 111.007C1102.79 133.508 1095.75 146.455 1079.72 148.392C1073.3 149.168 1071.74 150.441 1074.58 152.594C1076.05 153.708 1078.53 153.912 1085.48 153.494C1115.76 151.673 1136.92 135.051 1138.69 111.688C1140.11 92.9555 1129.93 78.8885 1110.48 72.7233C1099.85 69.3495 1092.54 68.8417 1052.58 68.6951C1023.24 68.5873 1012.26 68.8607 1011.08 69.7286ZM1157.18 69.6438C1154.72 71.4404 1156.67 72.854 1162.63 73.5982C1169.39 74.4402 1171.62 76.3835 1172.48 82.1935C1172.83 84.5647 1172.96 111.869 1172.77 142.869C1172.4 201.517 1172.18 204.474 1168.13 206.637C1167.22 207.121 1164.31 207.84 1161.65 208.238C1157.32 208.885 1154.78 210.832 1156.29 212.341C1157.06 213.11 1230.83 213.181 1231.6 212.413C1231.95 212.07 1231.98 211.135 1231.67 210.336C1231.3 209.376 1228.85 208.641 1224.46 208.171C1214.23 207.078 1212.87 205.466 1211.88 193.168C1210.71 178.666 1210.79 89.2953 1211.98 82.8998C1213.2 76.3825 1215.26 74.4582 1222.05 73.5274C1226.64 72.8969 1229.25 70.9795 1227.67 69.4004C1226.54 68.2731 1158.74 68.5075 1157.18 69.6438ZM3.042 77.2773C3.074 78.5114 6.14 95.6829 9.855 115.435L16.609 151.348L45.008 151.614L73.407 151.879L70.087 148.461L66.766 145.044L69.723 129.913L72.68 114.784L70.582 113.474C65.656 110.399 3.914 75.0328 3.471 75.0328C3.203 75.0328 3.01 76.0433 3.042 77.2773ZM265.203 94.3611C246.899 104.943 231.529 114.014 231.049 114.518C230.547 115.045 231.426 121.802 233.113 130.399L236.051 145.363L233.017 147.93C231.349 149.341 229.984 150.8 229.984 151.172C229.984 151.543 242.575 151.847 257.965 151.847H285.946L286.45 149.603C287.493 144.961 299.984 77.1207 299.984 76.0992C299.984 75.5126 299.647 75.0527 299.234 75.0767C298.821 75.1006 283.508 83.7786 265.203 94.3611ZM92.984 112.294C92.984 112.56 94.509 113.718 96.372 114.868C99.094 116.545 99.886 117.788 100.398 121.184L101.036 125.411L111.461 129.281C121.361 132.957 122.939 133.162 127.352 131.358C129.12 130.635 129.18 131.04 128.49 138.976C128.089 143.586 127.979 147.134 128.245 146.859C128.923 146.162 137.094 123.675 136.758 123.43C136.607 123.32 127.484 120.886 116.484 118.019C105.484 115.153 95.697 112.583 94.734 112.308C93.771 112.033 92.984 112.027 92.984 112.294ZM186.984 117.673C175.709 120.699 166.318 123.32 166.116 123.497C165.913 123.674 167.807 129.34 170.324 136.087C174.946 148.476 175.59 148.565 174.093 136.601C173.468 131.607 173.58 130.916 174.928 131.448C179.312 133.185 182.952 132.69 191.938 129.133L201.393 125.392L202.458 121.028C203.243 117.811 204.432 116.042 206.976 114.303C208.874 113.005 209.765 111.994 208.956 112.056C208.146 112.119 198.259 114.646 186.984 117.673ZM18.667 159.579C18.313 160.185 28.898 219.502 29.532 220.465C29.999 221.176 100.266 180.111 100.777 178.829C101.155 177.878 97.938 174.193 91.419 168.112L81.484 158.842L50.293 158.836C33.138 158.833 18.906 159.168 18.667 159.579ZM211.327 168.224C203.399 175.789 201.679 177.925 202.484 179.203C203.367 180.604 270.084 219.576 272.344 220.011C273.198 220.175 283.948 165.694 283.972 161.075L283.984 158.83H252.577H221.169L211.327 168.224ZM134.806 189.098C129.483 190.282 124.859 191.525 124.531 191.86C124.202 192.193 129.136 196.365 135.496 201.13L147.058 209.794L146.771 218.89L146.484 227.986L134.009 232.724L121.535 237.461L117.421 235.056C115.159 233.734 112.849 232.652 112.289 232.652C111.728 232.652 106.41 241.07 100.472 251.357C94.534 261.645 89.058 271.011 88.304 272.172C86.999 274.176 87.941 275.133 107.208 291.401C127.459 308.501 135.293 313.636 143.234 315.02L146.984 315.674L146.941 290.872L146.897 266.071L136.018 254.599C127.514 245.632 125.504 242.996 126.812 242.529C127.731 242.201 133.552 241.13 139.746 240.148C150.445 238.454 151.57 238.449 162.246 240.064C168.427 240.998 174.494 242.005 175.728 242.302C177.741 242.786 176.789 244.092 166.504 254.955L155.035 267.069L155.01 291.388L154.984 315.707L159.182 315.037C167.419 313.723 175.116 308.759 194.984 291.948C205.709 282.873 214.633 275.026 214.814 274.51C215.283 273.179 191.734 232.649 190.501 232.664C189.942 232.671 187.577 233.763 185.246 235.093L181.009 237.51L175.246 235.22C172.077 233.96 166.222 231.704 162.234 230.209L154.984 227.49L155.029 218.848L155.074 210.206L166.981 201.263C173.529 196.344 178.649 192.082 178.358 191.792C178.067 191.501 173.067 190.267 167.247 189.05C157.342 186.979 156.488 186.942 153.905 188.465C151.349 189.971 150.958 189.968 148.6 188.427C145.609 186.472 146.889 186.41 134.806 189.098ZM203.014 190.422C203.03 190.879 203.692 197.761 204.484 205.717C206.43 225.254 206.555 224.03 202.414 226C200.36 226.977 198.98 228.299 199.164 229.112C199.598 231.027 221.342 268.529 222.03 268.549C222.771 268.571 270.183 228.512 269.793 228.195C269.623 228.056 255.984 220.196 239.484 210.727C222.984 201.258 208.021 192.63 206.234 191.552C204.447 190.475 202.997 189.966 203.014 190.422ZM65.234 209.51C47.496 219.761 33.012 228.376 33.047 228.655C33.194 229.826 80.256 268.515 80.986 268.064C81.859 267.527 102.443 232.238 103.517 229.439C104.012 228.148 103.286 227.3 100.58 226.012C97.793 224.686 96.984 223.71 96.984 221.667C96.984 218.878 98.697 199.475 99.426 193.995C99.706 191.897 99.439 190.774 98.671 190.812C98.018 190.845 82.971 199.259 65.234 209.51ZM751.632 262.341C751.373 262.758 745.718 275.409 739.065 290.453C732.411 305.498 726.227 318.623 725.321 319.622C724.415 320.621 722.645 321.438 721.388 321.438C720.131 321.438 718.824 321.886 718.484 322.435C718.085 323.08 722.14 323.433 729.925 323.433C736.726 323.433 741.984 323.027 741.984 322.501C741.984 321.989 740.747 321.428 739.234 321.254C736.881 320.985 736.502 320.507 736.61 317.946C736.679 316.3 737.443 313.27 738.309 311.212L739.882 307.471H749.446H759.009L761.546 313.193C763.056 316.599 763.852 319.829 763.514 321.174L762.946 323.433H776.024C784.488 323.433 788.884 323.081 788.484 322.435C788.144 321.886 786.846 321.438 785.599 321.438C784.353 321.438 782.388 320.428 781.234 319.193C780.079 317.958 773.882 305.052 767.463 290.512C761.044 275.972 755.33 263.515 754.766 262.829C753.604 261.418 752.327 261.219 751.632 262.341ZM809.984 263.183C792.007 267.986 782.54 286.126 788.66 304.043C790.994 310.876 798.753 318.44 806.515 321.451C813.564 324.183 830.89 325.338 837.641 323.525C842.118 322.322 842.357 321.886 843.557 312.709C844.367 306.516 843.191 305.991 840.682 311.425C838.352 316.469 832.585 318.907 824.554 318.242C816.416 317.57 810.311 313.448 806.532 306.077C803.877 300.897 803.546 299.258 803.517 291.146C803.489 283.38 803.854 281.296 805.984 277.046C809.633 269.768 813.507 267.568 822.672 267.568C833.831 267.568 840.984 272.224 840.984 279.489C840.984 280.614 841.369 281.534 841.84 281.534C842.953 281.534 844.304 265.473 843.271 264.525C841.908 263.276 829.608 261.579 822.402 261.648C818.597 261.684 813.009 262.374 809.984 263.183ZM878.478 265.227C877.524 267.231 871.88 279.843 865.935 293.253C859.99 306.661 854.349 318.489 853.4 319.535C852.451 320.582 850.619 321.438 849.329 321.438C848.039 321.438 846.984 321.886 846.984 322.435C846.984 323.046 851.717 323.433 859.184 323.433C866.59 323.433 871.011 323.074 870.434 322.52C869.912 322.017 868.359 321.457 866.984 321.273C864.904 320.995 864.51 320.436 864.64 317.946C864.725 316.3 865.519 313.27 866.403 311.212L868.011 307.471L877.747 307.486L887.484 307.502L890.098 313.907C891.919 318.37 892.394 320.63 891.665 321.357C891.089 321.931 890.812 322.59 891.051 322.82C891.289 323.051 906.334 323.383 924.484 323.558C956.676 323.872 957.621 323.825 963.063 321.653C974.637 317.034 981.732 307.481 982.721 295.184C984.099 278.057 974.387 266.626 955.918 263.636C947.538 262.279 915.984 262.234 915.984 263.577C915.984 264.126 917.054 264.575 918.362 264.575C923.206 264.575 923.485 266.07 923.464 291.916C923.454 305.135 923.121 317.132 922.725 318.575C921.356 323.568 911.967 323.016 908.397 317.732C907.234 316.009 900.991 302.671 894.526 288.091C887.985 273.344 882.202 261.582 881.491 261.582C880.787 261.582 879.432 263.222 878.478 265.227ZM1056.52 263.827C1056.25 265.062 1054.27 277.855 1052.13 292.258C1049.98 306.66 1047.67 319.118 1046.98 319.941C1046.3 320.764 1044.89 321.438 1043.86 321.438C1042.83 321.438 1041.98 321.886 1041.98 322.435C1041.98 323.04 1046.32 323.433 1052.98 323.433C1059.65 323.433 1063.98 323.04 1063.98 322.435C1063.98 321.886 1062.91 321.438 1061.61 321.438C1057.17 321.438 1056.73 319.643 1057.96 306.777C1059.74 288.172 1058.88 288.185 1069.38 306.609C1074.49 315.588 1079.33 323.062 1080.13 323.218C1081.1 323.409 1084.59 317.844 1090.68 306.394C1101.03 286.931 1100.1 286.862 1102.04 307.24C1102.88 316.138 1102.9 319.839 1102.1 320.799C1101.5 321.525 1101.3 322.415 1101.66 322.776C1102.76 323.87 1126.98 323.543 1126.98 322.435C1126.98 321.886 1125.7 321.438 1124.14 321.438C1118.81 321.438 1118.24 319.703 1114.5 291.931C1110.47 262.115 1110.32 261.31 1108.7 261.828C1108.03 262.041 1104.16 268.021 1100.1 275.116C1096.04 282.212 1090.81 291.321 1088.47 295.36L1084.23 302.7L1072.96 283.887C1058.84 260.332 1057.63 258.85 1056.52 263.827ZM990.984 263.577C990.984 264.126 992.054 264.575 993.362 264.575C997.859 264.575 998.034 265.727 997.751 293.519C997.467 321.422 997.672 320.293 992.591 321.887C991.55 322.215 990.875 322.657 991.091 322.87C992.039 323.807 1033.03 323.788 1033.97 322.851C1035.5 321.32 1036.53 309.466 1035.13 309.466C1034.5 309.466 1033.98 310.16 1033.98 311.008C1033.98 311.856 1032.88 313.651 1031.53 314.998C1029.43 317.094 1028.14 317.447 1022.6 317.447C1013.52 317.447 1012.98 316.722 1012.98 304.408V294.503H1020.54H1028.09L1029.76 298.244L1031.44 301.985L1032.02 294.503C1032.58 287.352 1031.98 284.108 1030.54 286.435C1030.14 287.078 1026.43 287.519 1021.43 287.519H1012.98V278.541V269.563H1020.41C1028.43 269.563 1030.98 270.835 1030.98 274.821C1030.98 279.308 1032.75 274.804 1033.34 268.815L1033.95 262.58H1012.47C998.812 262.58 990.984 262.943 990.984 263.577ZM1120.48 263.577C1120.14 264.126 1120.51 264.575 1121.29 264.575C1124.17 264.575 1127.83 268.726 1134.22 279.24C1144.96 296.933 1144.98 296.992 1144.98 308.728C1144.98 319.325 1144.3 321.438 1140.84 321.438C1139.89 321.438 1138.82 321.886 1138.48 322.435C1138.08 323.084 1143.33 323.433 1153.48 323.433C1163.64 323.433 1168.89 323.084 1168.48 322.435C1168.14 321.886 1166.56 321.438 1164.96 321.438C1160.63 321.438 1159.75 318.842 1160.15 307.123C1160.52 295.971 1161.02 294.623 1171.02 278.042C1176.94 268.24 1179.3 265.659 1183.04 264.912C1184.64 264.593 1185.71 263.937 1185.41 263.456C1184.64 262.216 1163.98 262.332 1163.98 263.577C1163.98 264.126 1164.67 264.575 1165.52 264.575C1166.36 264.575 1167.29 265.198 1167.58 265.961C1168.15 267.442 1157.49 289.515 1156.2 289.515C1154.93 289.515 1142.78 266.711 1143.46 265.603C1143.81 265.038 1144.78 264.575 1145.6 264.575C1146.43 264.575 1146.82 264.126 1146.48 263.577C1146.13 262.999 1140.66 262.58 1133.48 262.58C1126.31 262.58 1120.84 262.999 1120.48 263.577ZM940.234 268.665C937.994 269.495 937.985 269.593 938.102 290.231C938.247 315.612 938.414 316.565 942.993 318.177C951.071 321.023 961.6 316.712 965.041 309.151C967.441 303.876 967.66 290.851 965.456 284.399C963.511 278.704 958.818 273.012 954.137 270.67C949.711 268.457 943.294 267.531 940.234 268.665ZM746.107 291.222C744.383 295.495 742.976 299.328 742.979 299.74C742.982 300.152 745.909 300.488 749.484 300.488C753.059 300.488 755.984 300.101 755.984 299.628C755.984 298.726 750.201 284.411 749.592 283.802C749.398 283.61 747.83 286.949 746.107 291.222ZM874.181 291.039C872.417 295.413 870.976 299.328 870.979 299.74C870.982 300.152 873.958 300.488 877.592 300.488H884.201L883.545 297.882C883.185 296.449 881.652 292.533 880.139 289.181L877.388 283.086L874.181 291.039ZM355.984 294.004V296.498H516.484H676.984V294.004V291.51H516.484H355.984V294.004ZM1226.98 294.004V296.498H1387.48H1547.98V294.004V291.51H1387.48H1226.98V294.004Z"/>
</mask>
<path fill-rule="evenodd" clip-rule="evenodd" d="M98.984 2.15679C90.468 3.96243 74.464 9.6048 73.516 11.1351C73.158 11.7137 104.046 66.6241 106.56 69.8782C106.701 70.0608 109.817 67.8571 113.485 64.982L120.154 59.7537L124.319 61.8536C126.61 63.0088 132.646 66.2191 137.734 68.9874L146.984 74.0212V37.1173V0.213485L127.234 0.283316C112.206 0.337186 105.452 0.785106 98.984 2.15679ZM154.984 36.4599C154.984 56.5125 155.322 73.1104 155.734 73.3428C156.146 73.5753 162.109 70.6942 168.984 66.9403C175.859 63.1864 181.795 60.1048 182.174 60.0919C182.554 60.0799 185.804 62.3165 189.397 65.0638L195.929 70.0578L197.347 67.8072C201.243 61.6192 228.961 13.2001 229.204 12.1586C229.553 10.6563 218.211 5.72717 208.102 2.98878C201.783 1.27692 196.606 0.845957 177.734 0.462883L154.984 0V36.4599ZM35.814 30.4983C20.046 38.8063 6.362 46.2772 5.406 47.1002C2.843 49.3049 0.0299999 56.0726 0.0139999 60.0689L0 63.5605L35.95 84.2465C55.722 95.624 72.467 105.051 73.16 105.196C73.963 105.363 74.756 103.554 75.345 100.211C76.258 95.0275 76.415 94.8439 88.153 85.288C96.106 78.8126 99.854 75.1355 99.482 74.1698C98.348 71.221 65.565 15.1813 65.035 15.2851C64.732 15.3439 51.583 22.1904 35.814 30.4983ZM220.086 44.6611C210.68 60.9079 202.984 74.5619 202.984 75.0028C202.984 75.4438 207.592 79.5598 213.224 84.1477C226.865 95.2619 226.664 95.0255 227.469 100.861C227.855 103.665 228.377 105.958 228.628 105.958C229.152 105.958 293.489 68.9804 299.358 65.3063C303.156 62.928 303.219 62.7913 302.597 58.2663C301.222 48.2614 300.72 47.9013 255.836 24.7442L237.189 15.1225L220.086 44.6611ZM1485.74 44.0715C1456.36 49.4346 1439 70.6274 1442.85 96.4371C1445.84 116.476 1455.19 128.145 1484.48 148.363C1505.38 162.787 1509.96 168.278 1510.71 179.772C1511.27 188.448 1508.54 193.964 1501.56 198.223C1496.81 201.128 1496.24 201.228 1484.56 201.228C1473.57 201.228 1471.97 200.989 1466.81 198.574C1455.1 193.098 1448.18 183.81 1445.92 170.547C1444.72 163.455 1444.17 162.47 1442.14 163.722C1439.58 165.303 1437.78 200.435 1439.97 206.181C1441.17 209.316 1446.52 211.78 1457.58 214.285C1469.15 216.908 1491.73 216.69 1502.28 213.853C1527.84 206.99 1542.98 189.11 1542.98 165.813C1542.98 143.624 1532.83 130.636 1496.3 106.083C1478.49 94.1127 1473.97 88.18 1474 76.8184C1474.02 68.0975 1476.73 63.4467 1483.91 59.8195C1488.67 57.4183 1490.47 57.0791 1498.41 57.1001C1508.39 57.126 1515.48 59.3008 1522.15 64.3735C1526.5 67.6825 1530.79 75.363 1531.61 81.2966C1532.36 86.7565 1533.32 88.4673 1535.24 87.7351C1536.4 87.2892 1536.84 83.4504 1537.42 68.5155C1537.83 57.9949 1537.76 49.4715 1537.26 48.9757C1536.78 48.4929 1532.36 47.184 1527.43 46.0667C1517.39 43.7872 1493.55 42.646 1485.74 44.0715ZM361.918 47.1411C361.244 47.5561 360.944 48.5507 361.252 49.3498C361.631 50.3364 363.926 50.9729 368.397 51.331C375.713 51.9166 379.486 53.839 381.248 57.8762C382.827 61.4965 383.492 159.585 382.097 183.237C381.035 201.254 379.861 206.035 376.245 207.084C375.276 207.364 371.897 207.897 368.734 208.267C364.006 208.82 362.984 209.275 362.984 210.82C362.984 211.854 363.547 212.719 364.234 212.743C366.874 212.833 441.575 212.88 443.234 212.792C445.036 212.697 445.657 210.24 444.119 209.292C443.644 208.999 440.606 208.487 437.369 208.154C422.535 206.631 422.568 206.713 422.165 170.801C421.989 155.164 421.989 139.934 422.165 136.956L422.484 131.542L426.205 137.147C432.298 146.324 453.749 174.452 464.044 186.763C479.216 204.906 484.017 208.467 497.345 211.468C503.43 212.838 512.97 213.088 561.984 213.167C593.609 213.218 620.519 213.079 621.784 212.859C623.26 212.602 623.972 211.876 623.771 210.834C623.542 209.64 621.555 208.923 616.283 208.134C612.336 207.544 608.427 206.498 607.596 205.81C603.739 202.617 603.522 199.125 603.503 139.876C603.48 71.7367 602.914 75.2153 614.314 73.5094C618.691 72.855 621.188 70.9137 619.639 69.3684C618.537 68.2681 549.923 68.709 548.806 69.8233C547.015 71.61 548.778 72.8221 554.235 73.5573C557.122 73.9464 560.256 74.6696 561.199 75.1634C564.874 77.0908 565.128 81.7944 564.801 141.871C564.493 198.556 564.425 200.33 562.44 203.702C560.779 206.522 559.559 207.327 555.94 207.995C549.863 209.114 542.031 208.268 536.7 205.916C525.302 200.886 493.622 166.716 462.765 126.171L452.714 112.964L469.599 95.3467C489.662 74.4123 503.214 61.7608 510.306 57.3405C514.709 54.5971 521.029 52.577 531.734 50.493C534.133 50.0262 534.819 47.5771 532.734 46.9197C529.787 45.9909 471.839 46.8458 470.85 47.8325C469.581 49.0984 471.031 50.1668 475.984 51.6163C480.976 53.0768 481.197 56.6801 476.708 63.4098C471.776 70.802 458.1 85.9753 438.808 105.459L422.016 122.418L422.006 92.4906C421.999 74.7225 422.419 61.0396 423.039 58.8129C424.309 54.252 426.911 52.4513 433.484 51.5834C440.549 50.6497 441.984 50.1459 441.984 48.5966C441.984 47.8474 441.196 47.0244 440.234 46.768C437.286 45.9819 363.226 46.3341 361.918 47.1411ZM660.486 67.8002C659.403 70.4568 659.014 81.7555 657.967 140.874C657.438 170.777 656.573 197.038 656.047 199.233C654.73 204.716 651.383 207.308 644.514 208.164C639.336 208.81 636.606 210.66 638.315 212.365C639.07 213.119 699.898 213.119 700.653 212.365C702.368 210.654 699.643 208.902 694.313 208.289C686.443 207.384 683.475 206.085 682.012 202.906C681.25 201.251 680.458 191.673 679.934 177.785C679.468 165.439 678.839 148.633 678.534 140.437L677.981 125.534L680.733 128.076C688.406 135.163 745.056 184.586 755.484 193.292C784.023 217.118 789.332 219.7 791.091 210.612C791.453 208.743 792.036 186.114 792.387 160.327C793.15 104.3 794.224 82.385 796.413 78.1622C798.083 74.941 799.01 74.4971 806.167 73.4905C810.681 72.855 813.039 70.813 810.83 69.4512C808.997 68.321 751.95 68.6821 750.798 69.8313C748.949 71.6759 750.889 72.884 756.75 73.5364C759.904 73.8875 763.756 74.6617 765.311 75.2562C771.099 77.4679 771.319 78.6011 772.217 110.833C772.669 127.081 772.915 144.226 772.762 148.932L772.484 157.49L739.984 129.121C703.391 97.1803 673.344 71.6499 668.401 68.299C664.432 65.6085 661.456 65.421 660.486 67.8002ZM901.484 67.0999C867.85 72.2744 843.17 90.8406 834.386 117.575C831.706 125.733 831.484 127.552 831.484 141.373C831.484 154.241 831.81 157.384 833.816 163.818C844.308 197.487 876.333 215.664 925.2 215.687C945.974 215.697 973.622 210.941 977.106 206.761C978.48 205.112 978.801 200.874 979.206 179.078C979.546 160.803 980.064 152.55 980.993 150.603C982.351 147.76 986.83 145.878 992.265 145.868C994.961 145.862 996.981 143.531 995.538 142.091C994.619 141.175 922.319 141.048 920.84 141.96C918.102 143.648 920.995 145.667 927.162 146.37C935.213 147.289 938.486 148.987 939.876 152.964C941.117 156.516 941.42 196.541 940.219 198.335C938.598 200.757 934.715 201.727 926.639 201.727C911.878 201.727 901.359 197.231 891.655 186.775C885.39 180.024 880.262 170.288 876.938 158.83C873.815 148.07 873.066 125.147 875.481 114.281C878.821 99.2602 885.761 89.1926 896.342 84.021C904.819 79.8771 912.367 78.674 925.484 79.3733C942.784 80.2951 953.49 83.7497 961.299 90.9304C966.232 95.4674 967.272 97.5045 969.403 106.808C971.027 113.899 971.316 114.408 973.288 113.652C974.346 113.247 974.848 109.491 975.387 97.9504C975.777 89.6056 976.551 80.319 977.108 77.3123C977.666 74.3045 977.978 71.7068 977.803 71.5382C977.627 71.3686 970.734 70.2453 962.484 69.0412C945.746 66.5971 911.776 65.5157 901.484 67.0999ZM1268.31 67.3014C1267.33 68.8347 1266.21 104.404 1266.03 139.876C1265.83 176.761 1264.64 198.568 1262.59 202.521C1260.56 206.444 1258.93 207.287 1251.73 208.158C1246.96 208.735 1245.98 209.181 1245.98 210.777C1245.98 211.918 1246.7 212.727 1247.73 212.766C1248.7 212.803 1262.46 212.857 1278.31 212.888C1298.35 212.926 1307.48 212.601 1308.26 211.823C1310.08 210.007 1308.04 209.031 1299.98 207.88C1290.81 206.568 1289.37 205.126 1288.56 196.475C1287.88 189.252 1285.78 126.757 1286.2 126.396C1286.36 126.262 1300.21 138.268 1316.98 153.075C1368.71 198.733 1389.73 215.693 1394.61 215.693C1399.17 215.693 1399.33 214.204 1400.15 161.324C1401.07 102.445 1402.07 82.6813 1404.36 78.269C1406.05 75.0048 1406.88 74.5848 1413.8 73.5094C1417.72 72.9009 1420.13 70.8529 1418.65 69.3814C1417.56 68.297 1359.91 68.724 1358.8 69.8253C1357.01 71.617 1358.79 72.8261 1364.23 73.5124C1372.84 74.5958 1375.87 75.9096 1377.7 79.3553C1379.13 82.0458 1379.5 87.775 1380.2 117.929C1380.66 137.407 1380.91 154.301 1380.76 155.472C1380.53 157.235 1376.36 154 1356.48 136.642C1322.85 107.274 1290.92 79.914 1281.53 72.4161C1273.76 66.2181 1269.94 64.7396 1268.31 67.3014ZM1011.08 69.7286C1008.64 71.5292 1010.82 72.9937 1017.02 73.7269C1024.74 74.6387 1026.61 76.8474 1027.48 86.112C1028.55 97.5454 1027.42 196.569 1026.17 201.201C1024.82 206.185 1023.1 207.429 1016.44 208.26C1011.42 208.885 1008.78 210.843 1011.06 212.247C1012.37 213.059 1085.79 213.227 1086.6 212.42C1086.95 212.073 1086.98 211.135 1086.67 210.336C1086.3 209.372 1083.83 208.638 1079.33 208.158C1073.88 207.576 1072.03 206.911 1069.88 204.765C1067.43 202.327 1067.14 201.199 1066.54 191.687C1066.17 185.961 1066.01 158.83 1066.18 131.397L1066.48 81.5171L1072.44 81.2118C1080.32 80.8078 1085.78 82.9826 1090.95 88.583C1096.42 94.4957 1098.73 100.192 1100.05 111.007C1102.79 133.508 1095.75 146.455 1079.72 148.392C1073.3 149.168 1071.74 150.441 1074.58 152.594C1076.05 153.708 1078.53 153.912 1085.48 153.494C1115.76 151.673 1136.92 135.051 1138.69 111.688C1140.11 92.9555 1129.93 78.8885 1110.48 72.7233C1099.85 69.3495 1092.54 68.8417 1052.58 68.6951C1023.24 68.5873 1012.26 68.8607 1011.08 69.7286ZM1157.18 69.6438C1154.72 71.4404 1156.67 72.854 1162.63 73.5982C1169.39 74.4402 1171.62 76.3835 1172.48 82.1935C1172.83 84.5647 1172.96 111.869 1172.77 142.869C1172.4 201.517 1172.18 204.474 1168.13 206.637C1167.22 207.121 1164.31 207.84 1161.65 208.238C1157.32 208.885 1154.78 210.832 1156.29 212.341C1157.06 213.11 1230.83 213.181 1231.6 212.413C1231.95 212.07 1231.98 211.135 1231.67 210.336C1231.3 209.376 1228.85 208.641 1224.46 208.171C1214.23 207.078 1212.87 205.466 1211.88 193.168C1210.71 178.666 1210.79 89.2953 1211.98 82.8998C1213.2 76.3825 1215.26 74.4582 1222.05 73.5274C1226.64 72.8969 1229.25 70.9795 1227.67 69.4004C1226.54 68.2731 1158.74 68.5075 1157.18 69.6438ZM3.042 77.2773C3.074 78.5114 6.14 95.6829 9.855 115.435L16.609 151.348L45.008 151.614L73.407 151.879L70.087 148.461L66.766 145.044L69.723 129.913L72.68 114.784L70.582 113.474C65.656 110.399 3.914 75.0328 3.471 75.0328C3.203 75.0328 3.01 76.0433 3.042 77.2773ZM265.203 94.3611C246.899 104.943 231.529 114.014 231.049 114.518C230.547 115.045 231.426 121.802 233.113 130.399L236.051 145.363L233.017 147.93C231.349 149.341 229.984 150.8 229.984 151.172C229.984 151.543 242.575 151.847 257.965 151.847H285.946L286.45 149.603C287.493 144.961 299.984 77.1207 299.984 76.0992C299.984 75.5126 299.647 75.0527 299.234 75.0767C298.821 75.1006 283.508 83.7786 265.203 94.3611ZM92.984 112.294C92.984 112.56 94.509 113.718 96.372 114.868C99.094 116.545 99.886 117.788 100.398 121.184L101.036 125.411L111.461 129.281C121.361 132.957 122.939 133.162 127.352 131.358C129.12 130.635 129.18 131.04 128.49 138.976C128.089 143.586 127.979 147.134 128.245 146.859C128.923 146.162 137.094 123.675 136.758 123.43C136.607 123.32 127.484 120.886 116.484 118.019C105.484 115.153 95.697 112.583 94.734 112.308C93.771 112.033 92.984 112.027 92.984 112.294ZM186.984 117.673C175.709 120.699 166.318 123.32 166.116 123.497C165.913 123.674 167.807 129.34 170.324 136.087C174.946 148.476 175.59 148.565 174.093 136.601C173.468 131.607 173.58 130.916 174.928 131.448C179.312 133.185 182.952 132.69 191.938 129.133L201.393 125.392L202.458 121.028C203.243 117.811 204.432 116.042 206.976 114.303C208.874 113.005 209.765 111.994 208.956 112.056C208.146 112.119 198.259 114.646 186.984 117.673ZM18.667 159.579C18.313 160.185 28.898 219.502 29.532 220.465C29.999 221.176 100.266 180.111 100.777 178.829C101.155 177.878 97.938 174.193 91.419 168.112L81.484 158.842L50.293 158.836C33.138 158.833 18.906 159.168 18.667 159.579ZM211.327 168.224C203.399 175.789 201.679 177.925 202.484 179.203C203.367 180.604 270.084 219.576 272.344 220.011C273.198 220.175 283.948 165.694 283.972 161.075L283.984 158.83H252.577H221.169L211.327 168.224ZM134.806 189.098C129.483 190.282 124.859 191.525 124.531 191.86C124.202 192.193 129.136 196.365 135.496 201.13L147.058 209.794L146.771 218.89L146.484 227.986L134.009 232.724L121.535 237.461L117.421 235.056C115.159 233.734 112.849 232.652 112.289 232.652C111.728 232.652 106.41 241.07 100.472 251.357C94.534 261.645 89.058 271.011 88.304 272.172C86.999 274.176 87.941 275.133 107.208 291.401C127.459 308.501 135.293 313.636 143.234 315.02L146.984 315.674L146.941 290.872L146.897 266.071L136.018 254.599C127.514 245.632 125.504 242.996 126.812 242.529C127.731 242.201 133.552 241.13 139.746 240.148C150.445 238.454 151.57 238.449 162.246 240.064C168.427 240.998 174.494 242.005 175.728 242.302C177.741 242.786 176.789 244.092 166.504 254.955L155.035 267.069L155.01 291.388L154.984 315.707L159.182 315.037C167.419 313.723 175.116 308.759 194.984 291.948C205.709 282.873 214.633 275.026 214.814 274.51C215.283 273.179 191.734 232.649 190.501 232.664C189.942 232.671 187.577 233.763 185.246 235.093L181.009 237.51L175.246 235.22C172.077 233.96 166.222 231.704 162.234 230.209L154.984 227.49L155.029 218.848L155.074 210.206L166.981 201.263C173.529 196.344 178.649 192.082 178.358 191.792C178.067 191.501 173.067 190.267 167.247 189.05C157.342 186.979 156.488 186.942 153.905 188.465C151.349 189.971 150.958 189.968 148.6 188.427C145.609 186.472 146.889 186.41 134.806 189.098ZM203.014 190.422C203.03 190.879 203.692 197.761 204.484 205.717C206.43 225.254 206.555 224.03 202.414 226C200.36 226.977 198.98 228.299 199.164 229.112C199.598 231.027 221.342 268.529 222.03 268.549C222.771 268.571 270.183 228.512 269.793 228.195C269.623 228.056 255.984 220.196 239.484 210.727C222.984 201.258 208.021 192.63 206.234 191.552C204.447 190.475 202.997 189.966 203.014 190.422ZM65.234 209.51C47.496 219.761 33.012 228.376 33.047 228.655C33.194 229.826 80.256 268.515 80.986 268.064C81.859 267.527 102.443 232.238 103.517 229.439C104.012 228.148 103.286 227.3 100.58 226.012C97.793 224.686 96.984 223.71 96.984 221.667C96.984 218.878 98.697 199.475 99.426 193.995C99.706 191.897 99.439 190.774 98.671 190.812C98.018 190.845 82.971 199.259 65.234 209.51ZM751.632 262.341C751.373 262.758 745.718 275.409 739.065 290.453C732.411 305.498 726.227 318.623 725.321 319.622C724.415 320.621 722.645 321.438 721.388 321.438C720.131 321.438 718.824 321.886 718.484 322.435C718.085 323.08 722.14 323.433 729.925 323.433C736.726 323.433 741.984 323.027 741.984 322.501C741.984 321.989 740.747 321.428 739.234 321.254C736.881 320.985 736.502 320.507 736.61 317.946C736.679 316.3 737.443 313.27 738.309 311.212L739.882 307.471H749.446H759.009L761.546 313.193C763.056 316.599 763.852 319.829 763.514 321.174L762.946 323.433H776.024C784.488 323.433 788.884 323.081 788.484 322.435C788.144 321.886 786.846 321.438 785.599 321.438C784.353 321.438 782.388 320.428 781.234 319.193C780.079 317.958 773.882 305.052 767.463 290.512C761.044 275.972 755.33 263.515 754.766 262.829C753.604 261.418 752.327 261.219 751.632 262.341ZM809.984 263.183C792.007 267.986 782.54 286.126 788.66 304.043C790.994 310.876 798.753 318.44 806.515 321.451C813.564 324.183 830.89 325.338 837.641 323.525C842.118 322.322 842.357 321.886 843.557 312.709C844.367 306.516 843.191 305.991 840.682 311.425C838.352 316.469 832.585 318.907 824.554 318.242C816.416 317.57 810.311 313.448 806.532 306.077C803.877 300.897 803.546 299.258 803.517 291.146C803.489 283.38 803.854 281.296 805.984 277.046C809.633 269.768 813.507 267.568 822.672 267.568C833.831 267.568 840.984 272.224 840.984 279.489C840.984 280.614 841.369 281.534 841.84 281.534C842.953 281.534 844.304 265.473 843.271 264.525C841.908 263.276 829.608 261.579 822.402 261.648C818.597 261.684 813.009 262.374 809.984 263.183ZM878.478 265.227C877.524 267.231 871.88 279.843 865.935 293.253C859.99 306.661 854.349 318.489 853.4 319.535C852.451 320.582 850.619 321.438 849.329 321.438C848.039 321.438 846.984 321.886 846.984 322.435C846.984 323.046 851.717 323.433 859.184 323.433C866.59 323.433 871.011 323.074 870.434 322.52C869.912 322.017 868.359 321.457 866.984 321.273C864.904 320.995 864.51 320.436 864.64 317.946C864.725 316.3 865.519 313.27 866.403 311.212L868.011 307.471L877.747 307.486L887.484 307.502L890.098 313.907C891.919 318.37 892.394 320.63 891.665 321.357C891.089 321.931 890.812 322.59 891.051 322.82C891.289 323.051 906.334 323.383 924.484 323.558C956.676 323.872 957.621 323.825 963.063 321.653C974.637 317.034 981.732 307.481 982.721 295.184C984.099 278.057 974.387 266.626 955.918 263.636C947.538 262.279 915.984 262.234 915.984 263.577C915.984 264.126 917.054 264.575 918.362 264.575C923.206 264.575 923.485 266.07 923.464 291.916C923.454 305.135 923.121 317.132 922.725 318.575C921.356 323.568 911.967 323.016 908.397 317.732C907.234 316.009 900.991 302.671 894.526 288.091C887.985 273.344 882.202 261.582 881.491 261.582C880.787 261.582 879.432 263.222 878.478 265.227ZM1056.52 263.827C1056.25 265.062 1054.27 277.855 1052.13 292.258C1049.98 306.66 1047.67 319.118 1046.98 319.941C1046.3 320.764 1044.89 321.438 1043.86 321.438C1042.83 321.438 1041.98 321.886 1041.98 322.435C1041.98 323.04 1046.32 323.433 1052.98 323.433C1059.65 323.433 1063.98 323.04 1063.98 322.435C1063.98 321.886 1062.91 321.438 1061.61 321.438C1057.17 321.438 1056.73 319.643 1057.96 306.777C1059.74 288.172 1058.88 288.185 1069.38 306.609C1074.49 315.588 1079.33 323.062 1080.13 323.218C1081.1 323.409 1084.59 317.844 1090.68 306.394C1101.03 286.931 1100.1 286.862 1102.04 307.24C1102.88 316.138 1102.9 319.839 1102.1 320.799C1101.5 321.525 1101.3 322.415 1101.66 322.776C1102.76 323.87 1126.98 323.543 1126.98 322.435C1126.98 321.886 1125.7 321.438 1124.14 321.438C1118.81 321.438 1118.24 319.703 1114.5 291.931C1110.47 262.115 1110.32 261.31 1108.7 261.828C1108.03 262.041 1104.16 268.021 1100.1 275.116C1096.04 282.212 1090.81 291.321 1088.47 295.36L1084.23 302.7L1072.96 283.887C1058.84 260.332 1057.63 258.85 1056.52 263.827ZM990.984 263.577C990.984 264.126 992.054 264.575 993.362 264.575C997.859 264.575 998.034 265.727 997.751 293.519C997.467 321.422 997.672 320.293 992.591 321.887C991.55 322.215 990.875 322.657 991.091 322.87C992.039 323.807 1033.03 323.788 1033.97 322.851C1035.5 321.32 1036.53 309.466 1035.13 309.466C1034.5 309.466 1033.98 310.16 1033.98 311.008C1033.98 311.856 1032.88 313.651 1031.53 314.998C1029.43 317.094 1028.14 317.447 1022.6 317.447C1013.52 317.447 1012.98 316.722 1012.98 304.408V294.503H1020.54H1028.09L1029.76 298.244L1031.44 301.985L1032.02 294.503C1032.58 287.352 1031.98 284.108 1030.54 286.435C1030.14 287.078 1026.43 287.519 1021.43 287.519H1012.98V278.541V269.563H1020.41C1028.43 269.563 1030.98 270.835 1030.98 274.821C1030.98 279.308 1032.75 274.804 1033.34 268.815L1033.95 262.58H1012.47C998.812 262.58 990.984 262.943 990.984 263.577ZM1120.48 263.577C1120.14 264.126 1120.51 264.575 1121.29 264.575C1124.17 264.575 1127.83 268.726 1134.22 279.24C1144.96 296.933 1144.98 296.992 1144.98 308.728C1144.98 319.325 1144.3 321.438 1140.84 321.438C1139.89 321.438 1138.82 321.886 1138.48 322.435C1138.08 323.084 1143.33 323.433 1153.48 323.433C1163.64 323.433 1168.89 323.084 1168.48 322.435C1168.14 321.886 1166.56 321.438 1164.96 321.438C1160.63 321.438 1159.75 318.842 1160.15 307.123C1160.52 295.971 1161.02 294.623 1171.02 278.042C1176.94 268.24 1179.3 265.659 1183.04 264.912C1184.64 264.593 1185.71 263.937 1185.41 263.456C1184.64 262.216 1163.98 262.332 1163.98 263.577C1163.98 264.126 1164.67 264.575 1165.52 264.575C1166.36 264.575 1167.29 265.198 1167.58 265.961C1168.15 267.442 1157.49 289.515 1156.2 289.515C1154.93 289.515 1142.78 266.711 1143.46 265.603C1143.81 265.038 1144.78 264.575 1145.6 264.575C1146.43 264.575 1146.82 264.126 1146.48 263.577C1146.13 262.999 1140.66 262.58 1133.48 262.58C1126.31 262.58 1120.84 262.999 1120.48 263.577ZM940.234 268.665C937.994 269.495 937.985 269.593 938.102 290.231C938.247 315.612 938.414 316.565 942.993 318.177C951.071 321.023 961.6 316.712 965.041 309.151C967.441 303.876 967.66 290.851 965.456 284.399C963.511 278.704 958.818 273.012 954.137 270.67C949.711 268.457 943.294 267.531 940.234 268.665ZM746.107 291.222C744.383 295.495 742.976 299.328 742.979 299.74C742.982 300.152 745.909 300.488 749.484 300.488C753.059 300.488 755.984 300.101 755.984 299.628C755.984 298.726 750.201 284.411 749.592 283.802C749.398 283.61 747.83 286.949 746.107 291.222ZM874.181 291.039C872.417 295.413 870.976 299.328 870.979 299.74C870.982 300.152 873.958 300.488 877.592 300.488H884.201L883.545 297.882C883.185 296.449 881.652 292.533 880.139 289.181L877.388 283.086L874.181 291.039ZM355.984 294.004V296.498H516.484H676.984V294.004V291.51H516.484H355.984V294.004ZM1226.98 294.004V296.498H1387.48H1547.98V294.004V291.51H1387.48H1226.98V294.004Z" fill="#FFFDFD" stroke="#FFFDFD" stroke-width="2" mask="url(#path-1-inside-1_164_3)"/>
</svg>
