<svg width="624" height="316" viewBox="0 0 624 316" fill="none" xmlns="http://www.w3.org/2000/svg">
<mask id="path-1-inside-1_186_72" fill="white">
<path d="M73.516 11.1351C74.464 9.6048 90.468 3.96243 98.984 2.15679C105.452 0.785106 112.206 0.337186 127.234 0.283316L146.984 0.213485V37.1173V74.0212L137.734 68.9874C132.646 66.2191 126.61 63.0088 124.319 61.8536L120.154 59.7537L113.485 64.9821C109.817 67.8571 106.701 70.0608 106.56 69.8782C104.046 66.6241 73.158 11.7137 73.516 11.1351Z"/>
<path d="M155.734 73.3429C155.322 73.1104 154.984 56.5125 154.984 36.4599V0L177.734 0.462883C196.606 0.845957 201.783 1.27692 208.102 2.98878C218.211 5.72717 229.553 10.6563 229.204 12.1586C228.961 13.2001 201.243 61.6192 197.347 67.8072L195.929 70.0578L189.397 65.0639C185.804 62.3165 182.554 60.0799 182.174 60.0919C181.795 60.1048 175.859 63.1864 168.984 66.9403C162.109 70.6943 156.146 73.5753 155.734 73.3429Z"/>
<path d="M5.406 47.1002C6.362 46.2772 20.046 38.8063 35.814 30.4983C51.583 22.1904 64.732 15.3439 65.035 15.2851C65.565 15.1813 98.348 71.221 99.482 74.1699C99.854 75.1355 96.106 78.8126 88.153 85.288C76.415 94.8439 76.258 95.0275 75.345 100.211C74.756 103.554 73.963 105.364 73.16 105.196C72.467 105.051 55.722 95.624 35.95 84.2465L0 63.5605L0.0139999 60.0689C0.0299999 56.0726 2.843 49.3049 5.406 47.1002Z"/>
<path d="M202.984 75.0028C202.984 74.5619 210.68 60.9079 220.086 44.6611L237.189 15.1225L255.836 24.7442C300.72 47.9013 301.222 48.2614 302.597 58.2663C303.219 62.7913 303.156 62.928 299.358 65.3063C293.489 68.9804 229.152 105.958 228.628 105.958C228.377 105.958 227.855 103.665 227.469 100.861C226.664 95.0255 226.865 95.2619 213.224 84.1478C207.592 79.5598 202.984 75.4438 202.984 75.0028Z"/>
<path d="M9.855 115.435C6.14 95.6829 3.074 78.5114 3.042 77.2774C3.01 76.0433 3.203 75.0328 3.471 75.0328C3.914 75.0328 65.656 110.399 70.582 113.474L72.68 114.784L69.723 129.913L66.766 145.044L70.087 148.461L73.407 151.879L45.008 151.614L16.609 151.348L9.855 115.435Z"/>
<path d="M231.049 114.518C231.529 114.014 246.899 104.943 265.203 94.3611C283.508 83.7786 298.821 75.1006 299.234 75.0767C299.647 75.0527 299.984 75.5126 299.984 76.0992C299.984 77.1207 287.493 144.961 286.45 149.603L285.946 151.847H257.965C242.575 151.847 229.984 151.543 229.984 151.172C229.984 150.8 231.349 149.341 233.017 147.93L236.051 145.363L233.113 130.399C231.426 121.802 230.547 115.045 231.049 114.518Z"/>
<path d="M96.372 114.868C94.509 113.718 92.984 112.56 92.984 112.294C92.984 112.027 93.771 112.033 94.734 112.308C95.697 112.583 105.484 115.153 116.484 118.019C127.484 120.886 136.607 123.32 136.758 123.43C137.094 123.675 128.923 146.162 128.245 146.859C127.979 147.134 128.089 143.586 128.49 138.976C129.18 131.04 129.12 130.635 127.352 131.358C122.939 133.162 121.361 132.957 111.461 129.281L101.036 125.411L100.398 121.184C99.886 117.789 99.094 116.546 96.372 114.868Z"/>
<path d="M166.116 123.497C166.318 123.32 175.709 120.699 186.984 117.673C198.259 114.646 208.146 112.119 208.956 112.056C209.765 111.995 208.874 113.005 206.976 114.303C204.432 116.042 203.243 117.811 202.458 121.028L201.393 125.392L191.938 129.133C182.952 132.69 179.312 133.185 174.928 131.449C173.58 130.916 173.468 131.607 174.093 136.601C175.59 148.565 174.946 148.476 170.324 136.087C167.807 129.34 165.913 123.674 166.116 123.497Z"/>
<path d="M29.532 220.465C28.898 219.502 18.313 160.185 18.667 159.579C18.906 159.168 33.138 158.833 50.293 158.836L81.484 158.842L91.419 168.112C97.938 174.193 101.155 177.878 100.777 178.829C100.266 180.111 29.999 221.176 29.532 220.465Z"/>
<path d="M202.484 179.203C201.679 177.925 203.399 175.789 211.327 168.224L221.169 158.83H252.577H283.984L283.972 161.075C283.948 165.694 273.198 220.175 272.344 220.011C270.084 219.576 203.367 180.604 202.484 179.203Z"/>
<path d="M124.531 191.86C124.859 191.525 129.483 190.282 134.806 189.098C146.889 186.41 145.609 186.472 148.6 188.427C150.958 189.968 151.349 189.971 153.905 188.465C156.488 186.942 157.342 186.979 167.247 189.05C173.067 190.267 178.067 191.501 178.358 191.792C178.649 192.082 173.529 196.344 166.981 201.263L155.074 210.206L155.029 218.848L154.984 227.49L162.234 230.209C166.222 231.704 172.077 233.96 175.246 235.22L181.009 237.51L185.246 235.093C187.577 233.763 189.942 232.671 190.501 232.664C191.734 232.649 215.283 273.179 214.814 274.51C214.633 275.026 205.709 282.873 194.984 291.948C175.116 308.759 167.419 313.723 159.182 315.037L154.984 315.707L155.01 291.388L155.035 267.069L166.504 254.955C176.789 244.092 177.741 242.786 175.728 242.302C174.494 242.005 168.427 240.998 162.246 240.064C151.57 238.449 150.445 238.454 139.746 240.148C133.552 241.13 127.731 242.201 126.812 242.529C125.504 242.996 127.514 245.632 136.018 254.599L146.897 266.071L146.941 290.872L146.984 315.674L143.234 315.02C135.293 313.636 127.459 308.501 107.208 291.401C87.941 275.133 86.999 274.176 88.304 272.172C89.058 271.011 94.534 261.645 100.472 251.357C106.41 241.07 111.728 232.652 112.289 232.652C112.849 232.652 115.159 233.734 117.421 235.056L121.535 237.461L134.009 232.724L146.484 227.986L146.771 218.89L147.058 209.794L135.496 201.13C129.136 196.365 124.202 192.193 124.531 191.86Z"/>
<path d="M204.484 205.717C203.692 197.761 203.03 190.879 203.014 190.422C202.997 189.966 204.447 190.475 206.234 191.552C208.021 192.63 222.984 201.258 239.484 210.727C255.984 220.196 269.623 228.056 269.793 228.195C270.183 228.512 222.771 268.571 222.03 268.549C221.342 268.529 199.598 231.027 199.164 229.112C198.98 228.299 200.36 226.977 202.414 226C206.555 224.03 206.43 225.254 204.484 205.717Z"/>
<path d="M33.047 228.655C33.012 228.376 47.496 219.761 65.234 209.51C82.971 199.259 98.018 190.845 98.671 190.812C99.439 190.774 99.706 191.898 99.426 193.995C98.697 199.475 96.984 218.878 96.984 221.667C96.984 223.71 97.793 224.686 100.58 226.012C103.286 227.3 104.012 228.148 103.517 229.439C102.443 232.238 81.859 267.527 80.986 268.065C80.256 268.515 33.194 229.826 33.047 228.655Z"/>
</mask>
<path d="M73.516 11.1351C74.464 9.6048 90.468 3.96243 98.984 2.15679C105.452 0.785106 112.206 0.337186 127.234 0.283316L146.984 0.213485V37.1173V74.0212L137.734 68.9874C132.646 66.2191 126.61 63.0088 124.319 61.8536L120.154 59.7537L113.485 64.9821C109.817 67.8571 106.701 70.0608 106.56 69.8782C104.046 66.6241 73.158 11.7137 73.516 11.1351Z" stroke="#EBE5D5" stroke-width="10" mask="url(#path-1-inside-1_186_72)"/>
<path d="M155.734 73.3429C155.322 73.1104 154.984 56.5125 154.984 36.4599V0L177.734 0.462883C196.606 0.845957 201.783 1.27692 208.102 2.98878C218.211 5.72717 229.553 10.6563 229.204 12.1586C228.961 13.2001 201.243 61.6192 197.347 67.8072L195.929 70.0578L189.397 65.0639C185.804 62.3165 182.554 60.0799 182.174 60.0919C181.795 60.1048 175.859 63.1864 168.984 66.9403C162.109 70.6943 156.146 73.5753 155.734 73.3429Z" stroke="#EBE5D5" stroke-width="10" mask="url(#path-1-inside-1_186_72)"/>
<path d="M5.406 47.1002C6.362 46.2772 20.046 38.8063 35.814 30.4983C51.583 22.1904 64.732 15.3439 65.035 15.2851C65.565 15.1813 98.348 71.221 99.482 74.1699C99.854 75.1355 96.106 78.8126 88.153 85.288C76.415 94.8439 76.258 95.0275 75.345 100.211C74.756 103.554 73.963 105.364 73.16 105.196C72.467 105.051 55.722 95.624 35.95 84.2465L0 63.5605L0.0139999 60.0689C0.0299999 56.0726 2.843 49.3049 5.406 47.1002Z" stroke="#EBE5D5" stroke-width="10" mask="url(#path-1-inside-1_186_72)"/>
<path d="M202.984 75.0028C202.984 74.5619 210.68 60.9079 220.086 44.6611L237.189 15.1225L255.836 24.7442C300.72 47.9013 301.222 48.2614 302.597 58.2663C303.219 62.7913 303.156 62.928 299.358 65.3063C293.489 68.9804 229.152 105.958 228.628 105.958C228.377 105.958 227.855 103.665 227.469 100.861C226.664 95.0255 226.865 95.2619 213.224 84.1478C207.592 79.5598 202.984 75.4438 202.984 75.0028Z" stroke="#EBE5D5" stroke-width="10" mask="url(#path-1-inside-1_186_72)"/>
<path d="M9.855 115.435C6.14 95.6829 3.074 78.5114 3.042 77.2774C3.01 76.0433 3.203 75.0328 3.471 75.0328C3.914 75.0328 65.656 110.399 70.582 113.474L72.68 114.784L69.723 129.913L66.766 145.044L70.087 148.461L73.407 151.879L45.008 151.614L16.609 151.348L9.855 115.435Z" stroke="#EBE5D5" stroke-width="10" mask="url(#path-1-inside-1_186_72)"/>
<path d="M231.049 114.518C231.529 114.014 246.899 104.943 265.203 94.3611C283.508 83.7786 298.821 75.1006 299.234 75.0767C299.647 75.0527 299.984 75.5126 299.984 76.0992C299.984 77.1207 287.493 144.961 286.45 149.603L285.946 151.847H257.965C242.575 151.847 229.984 151.543 229.984 151.172C229.984 150.8 231.349 149.341 233.017 147.93L236.051 145.363L233.113 130.399C231.426 121.802 230.547 115.045 231.049 114.518Z" stroke="#EBE5D5" stroke-width="10" mask="url(#path-1-inside-1_186_72)"/>
<path d="M96.372 114.868C94.509 113.718 92.984 112.56 92.984 112.294C92.984 112.027 93.771 112.033 94.734 112.308C95.697 112.583 105.484 115.153 116.484 118.019C127.484 120.886 136.607 123.32 136.758 123.43C137.094 123.675 128.923 146.162 128.245 146.859C127.979 147.134 128.089 143.586 128.49 138.976C129.18 131.04 129.12 130.635 127.352 131.358C122.939 133.162 121.361 132.957 111.461 129.281L101.036 125.411L100.398 121.184C99.886 117.789 99.094 116.546 96.372 114.868Z" stroke="#EBE5D5" stroke-width="10" mask="url(#path-1-inside-1_186_72)"/>
<path d="M166.116 123.497C166.318 123.32 175.709 120.699 186.984 117.673C198.259 114.646 208.146 112.119 208.956 112.056C209.765 111.995 208.874 113.005 206.976 114.303C204.432 116.042 203.243 117.811 202.458 121.028L201.393 125.392L191.938 129.133C182.952 132.69 179.312 133.185 174.928 131.449C173.58 130.916 173.468 131.607 174.093 136.601C175.59 148.565 174.946 148.476 170.324 136.087C167.807 129.34 165.913 123.674 166.116 123.497Z" stroke="#EBE5D5" stroke-width="10" mask="url(#path-1-inside-1_186_72)"/>
<path d="M29.532 220.465C28.898 219.502 18.313 160.185 18.667 159.579C18.906 159.168 33.138 158.833 50.293 158.836L81.484 158.842L91.419 168.112C97.938 174.193 101.155 177.878 100.777 178.829C100.266 180.111 29.999 221.176 29.532 220.465Z" stroke="#EBE5D5" stroke-width="10" mask="url(#path-1-inside-1_186_72)"/>
<path d="M202.484 179.203C201.679 177.925 203.399 175.789 211.327 168.224L221.169 158.83H252.577H283.984L283.972 161.075C283.948 165.694 273.198 220.175 272.344 220.011C270.084 219.576 203.367 180.604 202.484 179.203Z" stroke="#EBE5D5" stroke-width="10" mask="url(#path-1-inside-1_186_72)"/>
<path d="M124.531 191.86C124.859 191.525 129.483 190.282 134.806 189.098C146.889 186.41 145.609 186.472 148.6 188.427C150.958 189.968 151.349 189.971 153.905 188.465C156.488 186.942 157.342 186.979 167.247 189.05C173.067 190.267 178.067 191.501 178.358 191.792C178.649 192.082 173.529 196.344 166.981 201.263L155.074 210.206L155.029 218.848L154.984 227.49L162.234 230.209C166.222 231.704 172.077 233.96 175.246 235.22L181.009 237.51L185.246 235.093C187.577 233.763 189.942 232.671 190.501 232.664C191.734 232.649 215.283 273.179 214.814 274.51C214.633 275.026 205.709 282.873 194.984 291.948C175.116 308.759 167.419 313.723 159.182 315.037L154.984 315.707L155.01 291.388L155.035 267.069L166.504 254.955C176.789 244.092 177.741 242.786 175.728 242.302C174.494 242.005 168.427 240.998 162.246 240.064C151.57 238.449 150.445 238.454 139.746 240.148C133.552 241.13 127.731 242.201 126.812 242.529C125.504 242.996 127.514 245.632 136.018 254.599L146.897 266.071L146.941 290.872L146.984 315.674L143.234 315.02C135.293 313.636 127.459 308.501 107.208 291.401C87.941 275.133 86.999 274.176 88.304 272.172C89.058 271.011 94.534 261.645 100.472 251.357C106.41 241.07 111.728 232.652 112.289 232.652C112.849 232.652 115.159 233.734 117.421 235.056L121.535 237.461L134.009 232.724L146.484 227.986L146.771 218.89L147.058 209.794L135.496 201.13C129.136 196.365 124.202 192.193 124.531 191.86Z" stroke="#EBE5D5" stroke-width="10" mask="url(#path-1-inside-1_186_72)"/>
<path d="M204.484 205.717C203.692 197.761 203.03 190.879 203.014 190.422C202.997 189.966 204.447 190.475 206.234 191.552C208.021 192.63 222.984 201.258 239.484 210.727C255.984 220.196 269.623 228.056 269.793 228.195C270.183 228.512 222.771 268.571 222.03 268.549C221.342 268.529 199.598 231.027 199.164 229.112C198.98 228.299 200.36 226.977 202.414 226C206.555 224.03 206.43 225.254 204.484 205.717Z" stroke="#EBE5D5" stroke-width="10" mask="url(#path-1-inside-1_186_72)"/>
<path d="M33.047 228.655C33.012 228.376 47.496 219.761 65.234 209.51C82.971 199.259 98.018 190.845 98.671 190.812C99.439 190.774 99.706 191.898 99.426 193.995C98.697 199.475 96.984 218.878 96.984 221.667C96.984 223.71 97.793 224.686 100.58 226.012C103.286 227.3 104.012 228.148 103.517 229.439C102.443 232.238 81.859 267.527 80.986 268.065C80.256 268.515 33.194 229.826 33.047 228.655Z" stroke="#EBE5D5" stroke-width="10" mask="url(#path-1-inside-1_186_72)"/>
<path d="M478.009 48.4116C478.928 48.8121 479.769 49.3359 480.466 50.0282C481.571 51.1269 482.171 52.5094 482.266 54.0568C482.439 56.8794 480.92 60.0772 478.657 63.47L478.657 63.4702C473.568 71.0975 459.713 86.4401 440.454 105.891L423.662 122.85L421.748 124.783L424.436 128.832L428.157 134.437M478.009 48.4116L428.157 134.437M478.009 48.4116C478.783 48.3784 479.61 48.346 480.482 48.3142C486.076 48.1107 493.484 47.9407 500.964 47.8304C508.443 47.7201 515.975 47.6696 521.815 47.7045C523.39 47.714 524.837 47.7296 526.124 47.7517C518.214 49.518 512.875 51.3858 508.853 53.8915L508.853 53.8917C505.085 56.2402 499.773 60.6538 492.98 66.9963C486.15 73.3725 477.711 81.8054 467.663 92.2898L450.778 109.907L449.299 111.45L450.594 113.151L460.645 126.358L462.634 124.844L460.645 126.358C476.113 146.683 491.799 165.426 505.065 179.734C511.697 186.887 517.746 192.955 522.876 197.567C527.936 202.116 532.311 205.442 535.56 206.876L536.569 204.589L535.56 206.876C538.208 208.044 541.38 208.865 544.666 209.298C530.11 209.247 520.335 209.155 513.501 208.975C504.241 208.732 500.547 208.329 497.763 207.702M478.009 48.4116L497.214 210.141M428.157 134.437C434.182 143.511 455.571 171.563 465.831 183.832C473.432 192.922 478.252 198.126 482.745 201.459C487.119 204.704 491.276 206.242 497.763 207.702M428.157 134.437L497.763 207.702M497.763 207.702C497.763 207.702 497.763 207.702 497.763 207.702L497.214 210.141M497.214 210.141C483.886 207.14 479.085 203.579 463.913 185.436C453.618 173.124 432.167 144.996 426.074 135.82L497.214 210.141ZM497.214 210.141C503.299 211.511 512.839 211.761 561.853 211.84C593.478 211.891 620.388 211.752 621.653 211.532C623.129 211.275 623.841 210.549 623.64 209.507C623.411 208.312 621.424 207.596 616.152 206.807C612.205 206.217 608.296 205.171 607.465 204.483M497.214 210.141L564.67 140.544C564.997 80.4673 564.743 75.7637 561.068 73.8363C560.125 73.3425 556.991 72.6193 554.104 72.2302C548.647 71.495 546.884 70.2829 548.675 68.4962C549.792 67.3819 618.406 66.941 619.508 68.0413C621.057 69.5866 618.56 71.5279 614.183 72.1823C611.334 72.6086 609.232 72.7112 607.683 73.6888C603.032 76.6229 603.355 87.4395 603.372 138.549C603.391 197.798 603.608 201.289 607.465 204.483M607.465 204.483L605.87 206.408C605.871 206.408 605.871 206.408 605.871 206.408L607.465 204.483ZM383.409 55.5496L383.408 55.5491C382.293 52.9939 380.498 51.0729 377.909 49.7544C376.112 48.8392 373.981 48.2377 371.512 47.859C372.366 47.8401 373.267 47.8218 374.208 47.8042C381.365 47.6703 390.825 47.5753 400.342 47.53C409.859 47.4847 419.421 47.4892 426.785 47.554C429.526 47.5781 431.957 47.6105 433.963 47.6517C433.665 47.6926 433.353 47.7346 433.026 47.7778C429.629 48.2263 426.85 48.9556 424.719 50.4305C422.47 51.987 421.24 54.1579 420.5 56.8152C420.262 57.6674 420.112 59.2158 419.99 61.0203C419.86 62.9369 419.749 65.4452 419.658 68.4199C419.475 74.3736 419.372 82.2636 419.375 91.1643C419.375 91.1643 419.375 91.1644 419.375 91.1644L419.385 121.092L419.387 127.167L420.069 126.479L419.857 130.068L419.538 135.482C419.538 135.482 419.538 135.482 419.538 135.482C419.356 138.572 419.359 153.914 419.534 169.502C419.534 169.502 419.534 169.502 419.534 169.502L419.538 169.8C419.636 178.606 419.712 185.308 419.998 190.387C420.284 195.463 420.79 199.239 421.909 201.989C423.126 204.979 425.059 206.738 427.799 207.745C429.558 208.391 431.676 208.728 434.051 209.003C432.924 209.004 431.712 209.006 430.428 209.007C423.152 209.013 413.578 209.013 403.973 209.007C392.011 209 380.049 208.983 372.398 208.962C374.34 208.678 376.05 208.378 376.809 208.158L376.81 208.158C378.241 207.743 379.463 206.923 380.43 205.588C381.336 204.336 381.952 202.722 382.426 200.792C383.367 196.957 383.933 191.031 384.462 182.057C385.165 170.134 385.346 139.613 385.157 111.701C385.062 97.7261 384.874 84.3691 384.611 74.2727C384.48 69.2273 384.329 64.9792 384.161 61.8697C384.076 60.3182 383.987 59.0249 383.89 58.0477C383.842 57.5613 383.789 57.1242 383.73 56.7591C383.684 56.4739 383.598 55.9831 383.409 55.5496ZM363.046 46.5483C363.046 46.5483 363.049 46.5501 363.054 46.5538C363.048 46.5502 363.046 46.5484 363.046 46.5483ZM472.383 46.2727C472.384 46.2727 472.392 46.2792 472.405 46.2923C472.389 46.2794 472.382 46.2728 472.383 46.2727ZM531.473 46.5741C531.473 46.5745 531.47 46.5788 531.461 46.5859C531.468 46.5772 531.472 46.5737 531.473 46.5741ZM442.974 210.241C442.976 210.242 442.967 210.239 442.949 210.232C442.965 210.237 442.972 210.24 442.974 210.241Z" stroke="#EBE5D5" stroke-width="5"/>
</svg>
