<svg width="1573" height="331" viewBox="0 0 1573 331" fill="none" xmlns="http://www.w3.org/2000/svg">
<path fill-rule="evenodd" clip-rule="evenodd" d="M1510.74 35.0715C1481.36 40.4346 1464 61.6274 1467.85 87.4371C1470.84 107.476 1480.19 119.145 1509.48 139.363C1530.38 153.787 1534.96 159.278 1535.71 170.772C1536.27 179.448 1533.54 184.964 1526.56 189.223C1521.81 192.128 1521.24 192.228 1509.56 192.228C1498.57 192.228 1496.97 191.989 1491.81 189.574C1480.1 184.098 1473.18 174.81 1470.92 161.547C1469.72 154.455 1469.17 153.47 1467.14 154.722C1464.58 156.303 1462.78 191.435 1464.97 197.181C1466.17 200.316 1471.52 202.78 1482.58 205.285C1494.15 207.908 1516.73 207.69 1527.28 204.853C1552.84 197.99 1567.98 180.11 1567.98 156.813C1567.98 134.624 1557.83 121.636 1521.3 97.083C1503.49 85.1127 1498.97 79.18 1499 67.8184C1499.02 59.0975 1501.73 54.4467 1508.91 50.8195C1513.67 48.4183 1515.47 48.0791 1523.41 48.1001C1533.39 48.126 1540.48 50.3008 1547.15 55.3735C1551.5 58.6825 1555.79 66.363 1556.61 72.2966C1557.36 77.7565 1558.32 79.4673 1560.24 78.7351C1561.4 78.2892 1561.84 74.4504 1562.42 59.5155C1562.83 48.9949 1562.76 40.4715 1562.26 39.9757C1561.78 39.4929 1557.36 38.184 1552.43 37.0667C1542.39 34.7872 1518.55 33.646 1510.74 35.0715ZM386.918 38.1411C386.244 38.5561 385.944 39.5507 386.252 40.3498C386.631 41.3364 388.926 41.9729 393.397 42.331C400.713 42.9166 404.486 44.839 406.248 48.8762C407.827 52.4965 408.492 150.585 407.097 174.237C406.035 192.254 404.861 197.035 401.245 198.084C400.276 198.364 396.897 198.897 393.734 199.267C389.006 199.82 387.984 200.275 387.984 201.82C387.984 202.854 388.547 203.719 389.234 203.743C391.874 203.833 466.575 203.88 468.234 203.792C470.036 203.697 470.657 201.24 469.119 200.292C468.644 199.999 465.606 199.487 462.369 199.154C447.535 197.631 447.568 197.713 447.165 161.801C446.989 146.164 446.989 130.934 447.165 127.956L447.484 122.542L451.205 128.147C457.298 137.324 478.749 165.452 489.044 177.763C504.216 195.906 509.017 199.467 522.345 202.468C528.43 203.838 537.97 204.088 586.984 204.167C618.609 204.218 645.519 204.079 646.784 203.859C648.26 203.602 648.972 202.876 648.771 201.834C648.542 200.64 646.555 199.923 641.283 199.134C637.336 198.544 633.427 197.498 632.596 196.81C628.739 193.617 628.522 190.125 628.503 130.876C628.48 62.7367 627.914 66.2153 639.314 64.5094C643.691 63.855 646.188 61.9137 644.639 60.3684C643.537 59.2681 574.923 59.709 573.806 60.8233C572.015 62.61 573.778 63.8221 579.235 64.5573C582.122 64.9464 585.256 65.6696 586.199 66.1634C589.874 68.0908 590.128 72.7944 589.801 132.871C589.493 189.556 589.425 191.33 587.44 194.702C585.779 197.522 584.559 198.327 580.94 198.995C574.863 200.114 567.031 199.268 561.7 196.916C550.302 191.886 518.622 157.716 487.765 117.171L477.714 103.964L494.599 86.3467C514.662 65.4123 528.214 52.7608 535.306 48.3405C539.709 45.5971 546.029 43.577 556.734 41.493C559.133 41.0262 559.819 38.5771 557.734 37.9197C554.787 36.9909 496.839 37.8458 495.85 38.8325C494.581 40.0984 496.031 41.1668 500.984 42.6163C505.976 44.0768 506.197 47.6801 501.708 54.4098C496.776 61.802 483.1 76.9753 463.808 96.459L447.016 113.418L447.006 83.4906C446.999 65.7225 447.419 52.0396 448.039 49.8129C449.309 45.252 451.911 43.4513 458.484 42.5834C465.549 41.6497 466.984 41.1459 466.984 39.5966C466.984 38.8474 466.196 38.0244 465.234 37.768C462.286 36.9819 388.226 37.3341 386.918 38.1411ZM685.486 58.8002C684.403 61.4568 684.014 72.7555 682.967 131.874C682.438 161.777 681.573 188.038 681.047 190.233C679.73 195.716 676.383 198.308 669.514 199.164C664.336 199.81 661.606 201.66 663.315 203.365C664.07 204.119 724.898 204.119 725.653 203.365C727.368 201.654 724.643 199.902 719.313 199.289C711.443 198.384 708.475 197.085 707.012 193.906C706.25 192.251 705.458 182.673 704.934 168.785C704.468 156.439 703.839 139.633 703.534 131.437L702.981 116.534L705.733 119.076C713.406 126.163 770.056 175.586 780.484 184.292C809.023 208.118 814.332 210.7 816.091 201.612C816.453 199.743 817.036 177.114 817.387 151.327C818.15 95.3 819.224 73.385 821.413 69.1622C823.083 65.941 824.01 65.4971 831.167 64.4905C835.681 63.855 838.039 61.813 835.83 60.4512C833.997 59.321 776.95 59.6821 775.798 60.8313C773.949 62.6759 775.889 63.884 781.75 64.5364C784.904 64.8875 788.756 65.6617 790.311 66.2562C796.099 68.4679 796.319 69.6011 797.217 101.833C797.669 118.081 797.915 135.226 797.762 139.932L797.484 148.49L764.984 120.121C728.391 88.1803 698.344 62.6499 693.401 59.299C689.432 56.6085 686.456 56.421 685.486 58.8002ZM926.484 58.0999C892.85 63.2744 868.17 81.8406 859.386 108.575C856.706 116.733 856.484 118.552 856.484 132.373C856.484 145.241 856.81 148.384 858.816 154.818C869.308 188.487 901.333 206.664 950.2 206.687C970.974 206.697 998.622 201.941 1002.11 197.761C1003.48 196.112 1003.8 191.874 1004.21 170.078C1004.55 151.803 1005.06 143.55 1005.99 141.603C1007.35 138.76 1011.83 136.878 1017.26 136.868C1019.96 136.862 1021.98 134.531 1020.54 133.091C1019.62 132.175 947.319 132.048 945.84 132.96C943.102 134.648 945.995 136.667 952.162 137.37C960.213 138.289 963.486 139.987 964.876 143.964C966.117 147.516 966.42 187.541 965.219 189.335C963.598 191.757 959.715 192.727 951.639 192.727C936.878 192.727 926.359 188.231 916.655 177.775C910.39 171.024 905.262 161.288 901.938 149.83C898.815 139.07 898.066 116.147 900.481 105.281C903.821 90.2602 910.761 80.1926 921.342 75.021C929.819 70.8771 937.367 69.674 950.484 70.3733C967.784 71.2951 978.49 74.7497 986.299 81.9304C991.232 86.4674 992.272 88.5045 994.403 97.808C996.027 104.899 996.316 105.408 998.288 104.652C999.346 104.247 999.848 100.491 1000.39 88.9504C1000.78 80.6056 1001.55 71.319 1002.11 68.3123C1002.67 65.3045 1002.98 62.7068 1002.8 62.5382C1002.63 62.3686 995.734 61.2453 987.484 60.0412C970.746 57.5971 936.776 56.5157 926.484 58.0999ZM1293.31 58.3014C1292.33 59.8347 1291.21 95.404 1291.03 130.876C1290.83 167.761 1289.64 189.568 1287.59 193.521C1285.56 197.444 1283.93 198.287 1276.73 199.158C1271.96 199.735 1270.98 200.181 1270.98 201.777C1270.98 202.918 1271.7 203.727 1272.73 203.766C1273.7 203.803 1287.46 203.857 1303.31 203.888C1323.35 203.926 1332.48 203.601 1333.26 202.823C1335.08 201.007 1333.04 200.031 1324.98 198.88C1315.81 197.568 1314.37 196.126 1313.56 187.475C1312.88 180.252 1310.78 117.757 1311.2 117.396C1311.36 117.262 1325.21 129.268 1341.98 144.075C1393.71 189.733 1414.73 206.693 1419.61 206.693C1424.17 206.693 1424.33 205.204 1425.15 152.324C1426.07 93.445 1427.07 73.6813 1429.36 69.269C1431.05 66.0048 1431.88 65.5848 1438.8 64.5094C1442.72 63.9009 1445.13 61.8529 1443.65 60.3814C1442.56 59.297 1384.91 59.724 1383.8 60.8253C1382.01 62.617 1383.79 63.8261 1389.23 64.5124C1397.84 65.5958 1400.87 66.9096 1402.7 70.3553C1404.13 73.0458 1404.5 78.775 1405.2 108.929C1405.66 128.407 1405.91 145.301 1405.76 146.472C1405.53 148.235 1401.36 145 1381.48 127.642C1347.85 98.274 1315.92 70.914 1306.53 63.4161C1298.76 57.2181 1294.94 55.7396 1293.31 58.3014ZM1036.08 60.7286C1033.64 62.5292 1035.82 63.9937 1042.02 64.7269C1049.74 65.6387 1051.61 67.8474 1052.48 77.112C1053.55 88.5454 1052.42 187.569 1051.17 192.201C1049.82 197.185 1048.1 198.429 1041.44 199.26C1036.42 199.885 1033.78 201.843 1036.06 203.247C1037.37 204.059 1110.79 204.227 1111.6 203.42C1111.95 203.073 1111.98 202.135 1111.67 201.336C1111.3 200.372 1108.83 199.638 1104.33 199.158C1098.88 198.576 1097.03 197.911 1094.88 195.765C1092.43 193.327 1092.14 192.199 1091.54 182.687C1091.17 176.961 1091.01 149.83 1091.18 122.397L1091.48 72.5171L1097.44 72.2118C1105.32 71.8078 1110.78 73.9826 1115.95 79.583C1121.42 85.4957 1123.73 91.192 1125.05 102.007C1127.79 124.508 1120.75 137.455 1104.72 139.392C1098.3 140.168 1096.74 141.441 1099.58 143.594C1101.05 144.708 1103.53 144.912 1110.48 144.494C1140.76 142.673 1161.92 126.051 1163.69 102.688C1165.11 83.9555 1154.93 69.8885 1135.48 63.7233C1124.85 60.3495 1117.54 59.8417 1077.58 59.6951C1048.24 59.5873 1037.26 59.8607 1036.08 60.7286ZM1182.18 60.6438C1179.72 62.4404 1181.67 63.854 1187.63 64.5982C1194.39 65.4402 1196.62 67.3835 1197.48 73.1935C1197.83 75.5647 1197.96 102.869 1197.77 133.869C1197.4 192.517 1197.18 195.474 1193.13 197.637C1192.22 198.121 1189.31 198.84 1186.65 199.238C1182.32 199.885 1179.78 201.832 1181.29 203.341C1182.06 204.11 1255.83 204.181 1256.6 203.413C1256.95 203.07 1256.98 202.135 1256.67 201.336C1256.3 200.376 1253.85 199.641 1249.46 199.171C1239.23 198.078 1237.87 196.466 1236.88 184.168C1235.71 169.666 1235.79 80.2953 1236.98 73.8998C1238.2 67.3825 1240.26 65.4582 1247.05 64.5274C1251.64 63.8969 1254.25 61.9795 1252.67 60.4004C1251.54 59.2731 1183.74 59.5075 1182.18 60.6438ZM776.632 253.341C776.373 253.758 770.718 266.409 764.065 281.453C757.411 296.498 751.227 309.623 750.321 310.622C749.415 311.621 747.645 312.438 746.388 312.438C745.131 312.438 743.824 312.886 743.484 313.435C743.085 314.08 747.14 314.433 754.925 314.433C761.726 314.433 766.984 314.027 766.984 313.501C766.984 312.989 765.747 312.428 764.234 312.254C761.881 311.985 761.502 311.507 761.61 308.946C761.679 307.3 762.443 304.27 763.309 302.212L764.882 298.471H774.446H784.009L786.546 304.193C788.056 307.599 788.852 310.829 788.514 312.174L787.946 314.433H801.024C809.488 314.433 813.884 314.081 813.484 313.435C813.144 312.886 811.846 312.438 810.599 312.438C809.353 312.438 807.388 311.428 806.234 310.193C805.079 308.958 798.882 296.052 792.463 281.512C786.044 266.972 780.33 254.515 779.766 253.829C778.604 252.418 777.327 252.219 776.632 253.341ZM834.984 254.183C817.007 258.986 807.54 277.126 813.66 295.043C815.994 301.876 823.753 309.44 831.515 312.451C838.564 315.183 855.89 316.338 862.641 314.525C867.118 313.322 867.357 312.886 868.557 303.709C869.367 297.516 868.191 296.991 865.682 302.425C863.352 307.469 857.585 309.907 849.554 309.242C841.416 308.57 835.311 304.448 831.532 297.077C828.877 291.897 828.546 290.258 828.517 282.146C828.489 274.38 828.854 272.296 830.984 268.046C834.633 260.768 838.507 258.568 847.672 258.568C858.831 258.568 865.984 263.224 865.984 270.489C865.984 271.614 866.369 272.534 866.84 272.534C867.953 272.534 869.304 256.473 868.271 255.525C866.908 254.276 854.608 252.579 847.402 252.648C843.597 252.684 838.009 253.374 834.984 254.183ZM903.478 256.227C902.524 258.231 896.88 270.843 890.935 284.253C884.99 297.661 879.349 309.489 878.4 310.535C877.451 311.582 875.619 312.438 874.329 312.438C873.039 312.438 871.984 312.886 871.984 313.435C871.984 314.046 876.717 314.433 884.184 314.433C891.59 314.433 896.011 314.074 895.434 313.52C894.912 313.017 893.359 312.457 891.984 312.273C889.904 311.995 889.51 311.436 889.64 308.946C889.725 307.3 890.519 304.27 891.403 302.212L893.011 298.471L902.747 298.486L912.484 298.502L915.098 304.907C916.919 309.37 917.394 311.63 916.665 312.357C916.089 312.931 915.812 313.59 916.051 313.82C916.289 314.051 931.334 314.383 949.484 314.558C981.676 314.872 982.621 314.825 988.063 312.653C999.637 308.034 1006.73 298.481 1007.72 286.184C1009.1 269.057 999.387 257.626 980.918 254.636C972.538 253.279 940.984 253.234 940.984 254.577C940.984 255.126 942.054 255.575 943.362 255.575C948.206 255.575 948.485 257.07 948.464 282.916C948.454 296.135 948.121 308.132 947.725 309.575C946.356 314.568 936.967 314.016 933.397 308.732C932.234 307.009 925.991 293.671 919.526 279.091C912.985 264.344 907.202 252.582 906.491 252.582C905.787 252.582 904.432 254.222 903.478 256.227ZM1081.52 254.827C1081.25 256.062 1079.27 268.855 1077.13 283.258C1074.98 297.66 1072.67 310.118 1071.98 310.941C1071.3 311.764 1069.89 312.438 1068.86 312.438C1067.83 312.438 1066.98 312.886 1066.98 313.435C1066.98 314.04 1071.32 314.433 1077.98 314.433C1084.65 314.433 1088.98 314.04 1088.98 313.435C1088.98 312.886 1087.91 312.438 1086.61 312.438C1082.17 312.438 1081.73 310.643 1082.96 297.777C1084.74 279.172 1083.88 279.185 1094.38 297.609C1099.49 306.588 1104.33 314.062 1105.13 314.218C1106.1 314.409 1109.59 308.844 1115.68 297.394C1126.03 277.931 1125.1 277.862 1127.04 298.24C1127.88 307.138 1127.9 310.839 1127.1 311.799C1126.5 312.525 1126.3 313.415 1126.66 313.776C1127.76 314.87 1151.98 314.543 1151.98 313.435C1151.98 312.886 1150.7 312.438 1149.14 312.438C1143.81 312.438 1143.24 310.703 1139.5 282.931C1135.47 253.115 1135.32 252.31 1133.7 252.828C1133.03 253.041 1129.16 259.021 1125.1 266.116C1121.04 273.212 1115.81 282.321 1113.47 286.36L1109.23 293.7L1097.96 274.887C1083.84 251.332 1082.63 249.85 1081.52 254.827ZM1015.98 254.577C1015.98 255.126 1017.05 255.575 1018.36 255.575C1022.86 255.575 1023.03 256.727 1022.75 284.519C1022.47 312.422 1022.67 311.293 1017.59 312.887C1016.55 313.215 1015.87 313.657 1016.09 313.87C1017.04 314.807 1058.03 314.788 1058.97 313.851C1060.5 312.32 1061.53 300.466 1060.13 300.466C1059.5 300.466 1058.98 301.16 1058.98 302.008C1058.98 302.856 1057.88 304.651 1056.53 305.998C1054.43 308.094 1053.14 308.447 1047.6 308.447C1038.52 308.447 1037.98 307.722 1037.98 295.408V285.503H1045.54H1053.09L1054.76 289.244L1056.44 292.985L1057.02 285.503C1057.58 278.352 1056.98 275.108 1055.54 277.435C1055.14 278.078 1051.43 278.519 1046.43 278.519H1037.98V269.541V260.563H1045.41C1053.43 260.563 1055.98 261.835 1055.98 265.821C1055.98 270.308 1057.75 265.804 1058.34 259.815L1058.95 253.58H1037.47C1023.81 253.58 1015.98 253.943 1015.98 254.577ZM1145.48 254.577C1145.14 255.126 1145.51 255.575 1146.29 255.575C1149.17 255.575 1152.83 259.726 1159.22 270.24C1169.96 287.933 1169.98 287.992 1169.98 299.728C1169.98 310.325 1169.3 312.438 1165.84 312.438C1164.89 312.438 1163.82 312.886 1163.48 313.435C1163.08 314.084 1168.33 314.433 1178.48 314.433C1188.64 314.433 1193.89 314.084 1193.48 313.435C1193.14 312.886 1191.56 312.438 1189.96 312.438C1185.63 312.438 1184.75 309.842 1185.15 298.123C1185.52 286.971 1186.02 285.623 1196.02 269.042C1201.94 259.24 1204.3 256.659 1208.04 255.912C1209.64 255.593 1210.71 254.937 1210.41 254.456C1209.64 253.216 1188.98 253.332 1188.98 254.577C1188.98 255.126 1189.67 255.575 1190.52 255.575C1191.36 255.575 1192.29 256.198 1192.58 256.961C1193.15 258.442 1182.49 280.515 1181.2 280.515C1179.93 280.515 1167.78 257.711 1168.46 256.603C1168.81 256.038 1169.78 255.575 1170.6 255.575C1171.43 255.575 1171.82 255.126 1171.48 254.577C1171.13 253.999 1165.66 253.58 1158.48 253.58C1151.31 253.58 1145.84 253.999 1145.48 254.577ZM965.234 259.665C962.994 260.495 962.985 260.593 963.102 281.231C963.247 306.612 963.414 307.565 967.993 309.177C976.071 312.023 986.6 307.712 990.041 300.151C992.441 294.876 992.66 281.851 990.456 275.399C988.511 269.704 983.818 264.012 979.137 261.67C974.711 259.457 968.294 258.531 965.234 259.665ZM771.107 282.222C769.383 286.495 767.976 290.328 767.979 290.74C767.982 291.152 770.909 291.488 774.484 291.488C778.059 291.488 780.984 291.101 780.984 290.628C780.984 289.726 775.201 275.411 774.592 274.802C774.398 274.61 772.83 277.949 771.107 282.222ZM899.181 282.039C897.417 286.413 895.976 290.328 895.979 290.74C895.982 291.152 898.958 291.488 902.592 291.488H909.201L908.545 288.882C908.185 287.449 906.652 283.533 905.139 280.181L902.388 274.086L899.181 282.039ZM380.984 285.004V287.498H541.484H701.984V285.004V282.51H541.484H380.984V285.004ZM1251.98 285.004V287.498H1412.48H1572.98V285.004V282.51H1412.48H1251.98V285.004Z" fill="#003A2E"/>
<g clip-path="url(#clip0_269_4)">
<path d="M119.83 116.934L127.598 122.236L128.93 130.917L150.687 139.381L158.206 136.34L156.047 155.746L165.587 129.269L119.83 116.934Z" fill="#BB914A"/>
<path d="M195.413 129.269L204.953 155.746L202.794 136.34L210.313 139.381L232.071 130.917L233.402 122.236L241.17 116.934L195.413 129.269Z" fill="#BB914A"/>
<path d="M305.522 230.932L317.191 167.014H251.797L232.607 185.256L232.874 188.232L305.522 230.932Z" fill="#BB914A"/>
<path d="M233.844 199.055L237.037 234.651L228.925 239.082L253.028 281.583L302.232 239.25L233.844 199.055Z" fill="#BB914A"/>
<path d="M128.126 188.232L128.393 185.256L109.203 167.014H43.8088L55.4781 230.932L128.126 188.232Z" fill="#BB914A"/>
<path d="M132.075 239.083L123.963 234.651L127.155 199.055L58.7676 239.25L107.972 281.584L132.075 239.083Z" fill="#BB914A"/>
<path d="M221.236 243.283L211.089 248.825L184.297 238.517V220.047L209.191 200.719L186.038 195.86L180.5 199.274L174.962 195.86L151.81 200.719L176.703 220.047V238.517L149.911 248.825L139.764 243.283L114.74 287.407L153.174 320.473C159.88 326.243 167.912 329.535 176.139 330.4V279.431L152.653 253.98L180.5 249.378L208.347 253.98L184.861 279.431V330.4C193.088 329.535 201.12 326.243 207.826 320.473L246.26 287.407L221.236 243.283Z" fill="#BB914A"/>
<path d="M261.63 120.016L267.626 151.968L261.138 158.135H318.812L333.482 77.7849L261.63 120.016Z" fill="#BB914A"/>
<path d="M261.024 11.7098L260.803 11.5925C246.437 3.97663 230.478 0 214.281 0H184.861V77.0977C196.064 70.9828 211.142 62.7339 211.933 62.1972C212.394 61.8842 218.598 66.7054 226.291 72.9534L261.024 11.7098Z" fill="#BB914A"/>
<path d="M268.767 15.8145L233.168 78.5854C245.139 88.4608 257.711 99.1364 257.711 99.1364L259.897 110.782L335.579 66.3001L335.604 66.1626C337.079 58.0822 333.195 49.9689 326.034 46.1729L268.767 15.8145Z" fill="#BB914A"/>
<path d="M176.139 0H146.719C130.522 0 114.563 3.97663 100.197 11.5925L99.9756 11.7098L134.709 72.9537C142.402 66.7057 148.606 61.8842 149.067 62.1972C149.858 62.7339 164.936 70.9829 176.139 77.0977L176.139 0Z" fill="#BB914A"/>
<path d="M101.103 110.783L103.289 99.1364C103.289 99.1364 115.861 88.4608 127.832 78.5857L92.2328 15.8145L34.9657 46.1729C27.8052 49.9689 23.9213 58.0821 25.3963 66.1626L25.4215 66.3001L101.103 110.783Z" fill="#BB914A"/>
<path d="M99.3703 120.016L27.5183 77.7849L42.1878 158.135H99.8623L93.374 151.968L99.3703 120.016Z" fill="#BB914A"/>
</g>
<defs>
<clipPath id="clip0_269_4">
<rect width="361" height="330.4" fill="white"/>
</clipPath>
</defs>
</svg>
