<svg width="743" height="668" viewBox="0 0 743 668" fill="none" xmlns="http://www.w3.org/2000/svg">
<g clip-path="url(#clip0_259_2280)">
<path d="M246.58 236.36L262.565 247.077L265.305 264.625L310.075 281.733L325.549 275.586L321.105 314.812L340.737 261.292L246.58 236.36Z" fill="#BB914A"/>
<path d="M402.111 261.292L421.742 314.812L417.299 275.586L432.772 281.733L477.543 264.625L480.283 247.077L496.268 236.36L402.111 261.292Z" fill="#BB914A"/>
<path d="M628.687 466.784L652.7 337.588H518.135L478.647 374.46L479.196 380.475L628.687 466.784Z" fill="#BB914A"/>
<path d="M481.194 402.352L487.763 474.303L471.071 483.26L520.669 569.168L621.919 483.599L481.194 402.352Z" fill="#BB914A"/>
<path d="M263.651 380.475L264.201 374.46L224.712 337.588H90.1478L114.16 466.784L263.651 380.475Z" fill="#BB914A"/>
<path d="M271.778 483.261L255.085 474.303L261.654 402.352L120.929 483.599L222.179 569.168L271.778 483.261Z" fill="#BB914A"/>
<path d="M455.249 491.75L434.368 502.954L379.238 482.117V444.784L430.462 405.715L382.819 395.894L371.424 402.795L360.029 395.894L312.386 405.715L363.61 444.784V482.117L308.479 502.954L287.599 491.75L236.107 580.938L315.194 647.776C328.994 659.439 345.521 666.093 362.45 667.841V564.818L314.122 513.372L371.424 504.07L428.725 513.372L380.397 564.818V667.841C397.327 666.093 413.854 659.439 427.654 647.776L506.741 580.938L455.249 491.75Z" fill="#BB914A"/>
<path d="M538.368 242.59L550.708 307.174L537.356 319.641H656.036L686.222 157.227L538.368 242.59Z" fill="#BB914A"/>
<path d="M537.122 23.6691L536.668 23.432C507.106 8.038 474.267 0 440.937 0H380.397V155.838C403.451 143.478 434.477 126.805 436.105 125.72C437.053 125.087 449.819 134.832 465.65 147.462L537.122 23.6691Z" fill="#BB914A"/>
<path d="M553.056 31.9659L479.801 158.846C504.435 178.807 530.305 200.385 530.305 200.385L534.802 223.925L690.537 134.013L690.588 133.735C693.624 117.402 685.632 101.003 670.897 93.3298L553.056 31.9659Z" fill="#BB914A"/>
<path d="M362.45 0H301.91C268.581 0 235.742 8.038 206.18 23.432L205.725 23.6691L277.197 147.462C293.028 134.833 305.794 125.087 306.743 125.72C308.371 126.805 339.396 143.479 362.451 155.839L362.45 0Z" fill="#BB914A"/>
<path d="M208.045 223.926L212.542 200.385C212.542 200.385 238.412 178.807 263.046 158.846L189.792 31.9659L71.9505 93.3297C57.2159 101.003 49.2238 117.402 52.2591 133.735L52.3109 134.013L208.045 223.926Z" fill="#BB914A"/>
<path d="M204.479 242.59L56.6256 157.227L86.8118 319.641H205.491L192.14 307.174L204.479 242.59Z" fill="#BB914A"/>
</g>
<defs>
<clipPath id="clip0_259_2280">
<rect width="742.848" height="667.841" fill="white"/>
</clipPath>
</defs>
</svg>
